# File produced by Open Asset Import Library (http://www.assimp.sf.net)
# (assimp v3.1.228943826)

mtllib pc.mtl

# vertex positions
v -0.185706 0.685706 0.516189
v -0.185706 0.314294 0.516189
v 0.185706 0.314294 0.516189
v 0.185706 0.685706 0.516189
v 0.464433 0.778226 -0.354335
v 0.464433 0.778226 -0.145665
v 0.464433 0.221774 -0.145665
v 0.464433 0.221774 -0.354335
v -0.031031 1.730883 -0.286918
v 0.082940 1.328364 -0.284630
v 0.112508 1.293594 -0.320037
v -0.014783 1.770661 -0.322349
v 0.112508 1.293594 0.320037
v 0.082940 1.328364 0.284630
v -0.014783 1.770661 0.322349
v -0.031249 1.731650 0.287715
v 0.471550 1.095868 -0.400000
v 0.231683 1.904132 -0.400000
v 0.231683 1.904132 0.400000
v 0.471550 1.095868 0.400000
v 0.454031 1.089086 0.375721
v 0.454031 1.089086 -0.375721
v 0.130027 1.267517 -0.303562
v 0.130027 1.267517 0.303562
v -0.200000 0.300000 0.500000
v 0.200000 0.300000 0.500000
v 0.200000 0.700000 0.500000
v -0.200000 0.700000 0.500000
v 0.464433 0.778226 0.354335
v 0.464433 0.221774 0.354335
v 0.464433 0.221774 0.145665
v 0.464433 0.778226 0.145665
v 0.500000 0.900000 -0.100000
v 0.500000 1.000000 0.000000
v 0.500000 0.000000 0.000000
v 0.500000 0.100000 -0.100000
v 0.500000 0.000000 -0.471049
v 0.500000 0.040943 -0.459057
v 0.500000 0.100000 -0.400000
v 0.500000 0.100000 0.100000
v 0.500000 0.900000 0.100000
v 0.500000 0.900000 -0.400000
v 0.500000 0.100000 0.400000
v 0.500000 0.900000 0.400000
v -0.439657 0.000000 0.500000
v 0.465053 0.000000 0.500000
v -0.414662 0.085338 0.500000
v 0.459057 0.040943 0.500000
v 0.459057 0.000000 -0.500000
v -0.414662 0.000000 -0.500000
v -0.500000 0.000000 -0.414662
v -0.500000 0.000000 0.414662
v 0.500000 0.000000 0.465053
v -0.500000 1.000000 0.414662
v -0.414662 1.000000 0.500000
v -0.500000 1.864662 0.414662
v -0.414662 1.900010 0.500000
v -0.500000 1.914662 0.364662
v -0.414662 2.000000 0.400010
v -0.414662 1.900010 -0.500000
v -0.414662 1.000000 -0.500000
v -0.500000 1.000000 -0.414662
v -0.500000 1.864662 -0.414662
v -0.500000 1.914662 -0.364662
v -0.414662 2.000000 -0.400010
v 0.500000 0.040943 0.459057
v 0.459057 0.994053 0.500000
v 0.500000 1.000000 0.459057
v 0.179767 1.900010 0.500000
v 0.216632 1.954848 0.447758
v 0.158174 2.000000 0.400010
v 0.217614 1.951542 -0.451114
v 0.500000 1.000000 -0.459057
v 0.459057 0.994053 -0.500000
v 0.184057 1.900010 -0.500000
v 0.152344 2.000000 -0.400010
v 0.454031 1.089086 0.187861
v 0.454031 1.089086 0.093930
v 0.373030 1.133694 0.089420
v 0.373030 1.133694 0.178841
v 0.454031 1.089086 -0.187861
v 0.373030 1.133694 -0.178841
v 0.373030 1.133694 -0.089420
v 0.454031 1.089086 -0.093930
v 0.454031 1.089086 -0.281791
v 0.373030 1.133694 -0.268261
v 0.373030 1.133694 0.268261
v 0.454031 1.089086 0.281791
v 0.130027 1.267517 -0.227671
v 0.130027 1.267517 -0.151781
v 0.211028 1.222909 -0.160801
v 0.211028 1.222909 -0.241201
v 0.130027 1.267517 -0.075890
v 0.211028 1.222909 -0.080400
v 0.130027 1.267517 0.075890
v 0.130027 1.267517 0.151781
v 0.211028 1.222909 0.160801
v 0.211028 1.222909 0.080400
v 0.130027 1.267517 0.227671
v 0.211028 1.222909 0.241201
v 0.255780 1.230292 0.173965
v 0.255780 1.230292 0.231344
v 0.313586 1.198457 0.240999
v 0.313586 1.198457 0.180402
v 0.292029 1.178301 0.169821
v 0.292029 1.178301 0.084910
v 0.313587 1.198457 -0.156719
v 0.255780 1.230291 -0.150282
v 0.255780 1.230291 -0.092904
v 0.313587 1.198457 -0.096122
v 0.292029 1.178301 -0.169821
v 0.292029 1.178301 -0.254731
v 0.394584 1.153851 -0.190068
v 0.394584 1.153851 -0.253883
v 0.336777 1.185686 -0.244228
v 0.336777 1.185686 -0.183631
v 0.292029 1.178301 -0.084910
v 0.394584 1.153851 0.165093
v 0.394584 1.153851 0.101278
v 0.336777 1.185685 0.098059
v 0.336777 1.185685 0.158656
v 0.292029 1.178301 0.254731
v 0.130027 1.267517 0.000000
v 0.211028 1.222909 0.000000
v 0.292029 1.178301 0.000000
v 0.394584 1.153851 -0.012488
v 0.394584 1.153851 -0.076303
v 0.336778 1.185685 -0.073084
v 0.336778 1.185685 -0.012488
v 0.454031 1.089086 0.000000
v 0.373030 1.133694 0.000000
v 0.373030 1.133694 -0.357681
v 0.292029 1.178301 -0.339642
v 0.211028 1.222909 -0.321602
v 0.313587 1.198456 0.011842
v 0.255780 1.230291 0.011842
v 0.255780 1.230291 0.069220
v 0.313587 1.198456 0.072439
v 0.211028 1.222909 0.321602
v 0.292029 1.178301 0.339642
v 0.373030 1.133694 0.357681
v 0.007150 1.801476 -0.547374
v 0.007162 1.794477 -0.493218
v 0.000672 1.791317 -0.493956
v 0.000671 1.798254 -0.547025
v -0.006211 1.793550 -0.493434
v -0.006201 1.800531 -0.547272
v -0.009456 1.799871 -0.491961
v -0.009441 1.806973 -0.547970
v -0.007162 1.806574 -0.490396
v -0.007150 1.813805 -0.548710
v -0.000672 1.809734 -0.489659
v -0.000671 1.817026 -0.549059
v 0.006211 1.807501 -0.490181
v 0.006201 1.814749 -0.548812
v 0.009456 1.801180 -0.491654
v 0.009441 1.808308 -0.548114
v 0.007140 1.775393 -0.587363
v 0.000670 1.773647 -0.584640
v -0.006192 1.774881 -0.586565
v -0.009427 1.778372 -0.592012
v -0.007140 1.782074 -0.597790
v -0.000670 1.783819 -0.600513
v 0.006192 1.782585 -0.598588
v 0.009427 1.779095 -0.593142
v 0.007130 1.725639 -0.608542
v 0.000669 1.724697 -0.605453
v -0.006183 1.725364 -0.607637
v -0.009413 1.727247 -0.613816
v -0.007130 1.729245 -0.620372
v -0.000669 1.730186 -0.623462
v 0.006183 1.729521 -0.621277
v 0.009413 1.727637 -0.615097
v 0.007120 1.671049 -0.621556
v 0.000669 1.670480 -0.618381
v -0.006175 1.670882 -0.620625
v -0.009401 1.672020 -0.626976
v -0.007120 1.673227 -0.633713
v -0.000669 1.673796 -0.636889
v 0.006175 1.673393 -0.634643
v 0.009401 1.672256 -0.628292
v 0.007112 1.618046 -0.624557
v 0.000668 1.618114 -0.621336
v -0.006167 1.618066 -0.623613
v -0.009390 1.617931 -0.630056
v -0.007112 1.617788 -0.636889
v -0.000668 1.617721 -0.640112
v 0.006167 1.617768 -0.637834
v 0.009390 1.617903 -0.631392
v 0.007104 1.561377 -0.624734
v 0.000667 1.561316 -0.621515
v -0.006160 1.561358 -0.623791
v -0.009379 1.561479 -0.630226
v -0.007104 1.561606 -0.637053
v -0.000667 1.561666 -0.640271
v 0.006160 1.561624 -0.637996
v 0.009379 1.561503 -0.631560
v 0.007096 1.505109 -0.626242
v 0.000666 1.505002 -0.623028
v -0.006154 1.505077 -0.625299
v -0.009370 1.505290 -0.631726
v -0.007096 1.505516 -0.638543
v -0.000666 1.505622 -0.641756
v 0.006154 1.505547 -0.639484
v 0.009370 1.505334 -0.633058
v 0.007090 1.449035 -0.628342
v 0.000666 1.448903 -0.625132
v -0.006148 1.448997 -0.627401
v -0.009361 1.449260 -0.633820
v -0.007090 1.449539 -0.640628
v -0.000666 1.449672 -0.643838
v 0.006148 1.449578 -0.641568
v 0.009361 1.449314 -0.635150
v 0.007084 1.392684 -0.630799
v 0.000665 1.392538 -0.627593
v -0.006143 1.392641 -0.629860
v -0.009353 1.392934 -0.636271
v -0.007084 1.393243 -0.643073
v -0.000665 1.393390 -0.646279
v 0.006143 1.393286 -0.644012
v 0.009353 1.392994 -0.637601
v 0.007078 1.337031 -0.633419
v 0.000665 1.336877 -0.630216
v -0.006138 1.336987 -0.632480
v -0.009345 1.337296 -0.638886
v -0.007078 1.337623 -0.645680
v -0.000665 1.337777 -0.648884
v 0.006138 1.337668 -0.646620
v 0.009345 1.337359 -0.640214
v 0.007073 1.281404 -0.636158
v 0.000664 1.281244 -0.632957
v -0.006134 1.281358 -0.635220
v -0.009339 1.281677 -0.641621
v -0.007073 1.282017 -0.648410
v -0.000664 1.282177 -0.651610
v 0.006134 1.282064 -0.649348
v 0.009339 1.281744 -0.642947
v 0.007068 1.223890 -0.639078
v 0.000664 1.223726 -0.635880
v -0.006130 1.223843 -0.638141
v -0.009333 1.224171 -0.644537
v -0.007068 1.224520 -0.651322
v -0.000664 1.224684 -0.654520
v 0.006130 1.224567 -0.652259
v 0.009333 1.224239 -0.645863
v 0.007064 1.167764 -0.641994
v 0.000663 1.167596 -0.638798
v -0.006126 1.167714 -0.641057
v -0.009327 1.168049 -0.647449
v -0.007064 1.168405 -0.654230
v -0.000663 1.168571 -0.657427
v 0.006126 1.168453 -0.655167
v 0.009327 1.168118 -0.648774
v 0.007061 1.112433 -0.644917
v 0.000663 1.112264 -0.641723
v -0.006123 1.112384 -0.643981
v -0.009322 1.112723 -0.650370
v -0.007061 1.113084 -0.657146
v -0.000663 1.113254 -0.660341
v 0.006123 1.113133 -0.658083
v 0.009322 1.112794 -0.651694
v 0.007058 1.056277 -0.647924
v 0.000663 1.056105 -0.644731
v -0.006120 1.056227 -0.646988
v -0.009318 1.056570 -0.653374
v -0.007058 1.056934 -0.660148
v -0.000663 1.057106 -0.663341
v 0.006120 1.056985 -0.661083
v 0.009318 1.056642 -0.654697
v 0.007055 1.000586 -0.650938
v 0.000662 1.000412 -0.647746
v -0.006118 1.000535 -0.650002
v -0.009315 1.000881 -0.656385
v -0.007055 1.001249 -0.663156
v -0.000662 1.001423 -0.666348
v 0.006118 1.001300 -0.664091
v 0.009315 1.000954 -0.657708
v 0.007052 0.945038 -0.653969
v 0.000662 0.944863 -0.650778
v -0.006116 0.944987 -0.653033
v -0.009311 0.945336 -0.659414
v -0.007052 0.945706 -0.666183
v -0.000662 0.945881 -0.669373
v 0.006116 0.945758 -0.667117
v 0.009311 0.945409 -0.660737
v 0.007050 0.889719 -0.657007
v 0.000662 0.889544 -0.653818
v -0.006114 0.889668 -0.656073
v -0.009309 0.890018 -0.662452
v -0.007050 0.890391 -0.669217
v -0.000662 0.890567 -0.672407
v 0.006114 0.890443 -0.670152
v 0.009309 0.890091 -0.663774
v 0.007049 0.832915 -0.660144
v 0.000662 0.832738 -0.656955
v -0.006113 0.832863 -0.659209
v -0.009306 0.833216 -0.665586
v -0.007049 0.833590 -0.672350
v -0.000662 0.833766 -0.675539
v 0.006113 0.833641 -0.673285
v 0.009306 0.833289 -0.666907
v 0.007047 0.776687 -0.663259
v 0.000662 0.776510 -0.660070
v -0.006111 0.776635 -0.662324
v -0.009304 0.776989 -0.668699
v -0.007047 0.777364 -0.675462
v -0.000662 0.777540 -0.678650
v 0.006111 0.777415 -0.676396
v 0.009304 0.777062 -0.670021
v 0.007046 0.720846 -0.666355
v 0.000662 0.720669 -0.663168
v -0.006110 0.720794 -0.665421
v -0.009303 0.721147 -0.671796
v -0.007046 0.721522 -0.678557
v -0.000662 0.721699 -0.681745
v 0.006110 0.721574 -0.679491
v 0.009303 0.721220 -0.673117
v 0.007045 0.663886 -0.669509
v 0.000661 0.663710 -0.666322
v -0.006109 0.663834 -0.668574
v -0.009302 0.664186 -0.674949
v -0.007045 0.664559 -0.681709
v -0.000661 0.664735 -0.684896
v 0.006109 0.664610 -0.682643
v 0.009302 0.664259 -0.676270
v 0.007044 0.609121 -0.672522
v 0.000661 0.608946 -0.669334
v -0.006109 0.609069 -0.671587
v -0.009301 0.609419 -0.677960
v -0.007044 0.609790 -0.684720
v -0.000661 0.609964 -0.687907
v 0.006109 0.609841 -0.685655
v 0.009301 0.609491 -0.679281
v 0.007044 0.552526 -0.675640
v 0.000661 0.552349 -0.672453
v -0.006108 0.552474 -0.674706
v -0.009300 0.552830 -0.681078
v -0.007044 0.553206 -0.687838
v -0.000661 0.553384 -0.691024
v 0.006108 0.553259 -0.688771
v 0.009300 0.552904 -0.682399
v 0.007043 0.496641 -0.678879
v 0.000661 0.496444 -0.675694
v -0.006108 0.496583 -0.677945
v -0.009299 0.496976 -0.684315
v -0.007043 0.497394 -0.691072
v -0.000661 0.497591 -0.694257
v 0.006108 0.497451 -0.692004
v 0.009299 0.497058 -0.685635
v 0.007043 0.440154 -0.683101
v 0.000661 0.439835 -0.679925
v -0.006108 0.440060 -0.682170
v -0.009299 0.440697 -0.688519
v -0.007043 0.441372 -0.695255
v -0.000661 0.441691 -0.698430
v 0.006108 0.441466 -0.696186
v 0.009299 0.440829 -0.689836
v 0.007043 0.385353 -0.707742
v 0.000661 0.384389 -0.704700
v -0.006108 0.385070 -0.706850
v -0.009299 0.386998 -0.712934
v -0.007043 0.389043 -0.719386
v -0.000661 0.390007 -0.722427
v 0.006108 0.389326 -0.720277
v 0.009299 0.387398 -0.714194
v 0.007043 0.332058 -0.726204
v 0.000661 0.330966 -0.723206
v -0.006108 0.331738 -0.725326
v -0.009299 0.333921 -0.731321
v -0.007043 0.336238 -0.737681
v -0.000661 0.337330 -0.740680
v 0.006108 0.336558 -0.738561
v 0.009299 0.334374 -0.732564
v 0.007043 0.287971 -0.762603
v 0.000661 0.286844 -0.759618
v -0.006107 0.287640 -0.761728
v -0.009299 0.289893 -0.767698
v -0.007043 0.292282 -0.774032
v -0.000661 0.293409 -0.777018
v 0.006107 0.292613 -0.774906
v 0.009299 0.290360 -0.768936
v 0.007043 0.240233 -0.771830
v 0.000661 0.240114 -0.768641
v -0.006107 0.240198 -0.770895
v -0.009299 0.240440 -0.777273
v -0.007043 0.240695 -0.784037
v -0.000661 0.240813 -0.787225
v 0.006107 0.240729 -0.784971
v 0.009299 0.240488 -0.778593
v 0.000000 1.800526 -0.491807
v 0.000000 0.240464 -0.777933
v -0.062448 1.860413 -0.492962
v -0.062448 1.743209 -0.492962
v 0.054756 1.743209 -0.492962
v 0.054756 1.860413 -0.492962
v -0.062448 1.860413 -0.521612
v 0.054756 1.860413 -0.521612
v -0.030173 1.775485 -0.540080
v -0.030173 1.828138 -0.540080
v 0.022481 1.828138 -0.540080
v 0.022481 1.775485 -0.540080
v -0.062448 1.743209 -0.521612
v 0.054756 1.743209 -0.521612
v -0.041015 1.838980 -0.525719
v 0.033322 1.838980 -0.525719
v 0.033322 1.764643 -0.525719
v -0.041015 1.764643 -0.525719
v -0.041143 0.228520 -0.735787
v -0.108555 0.224450 -0.666384
v 0.108555 0.224450 -0.666384
v 0.041143 0.228520 -0.735787
v 0.108555 0.224450 -0.889906
v 0.041143 0.228520 -0.820503
v -0.032144 0.246200 -0.745052
v 0.032144 0.246200 -0.745052
v 0.032144 0.246200 -0.811238
v -0.108555 0.045632 -0.666384
v 0.108555 0.045632 -0.666384
v -0.032144 0.246200 -0.811238
v -0.041143 0.228520 -0.820503
v 0.108555 0.080632 -0.715408
v -0.108555 0.080632 -0.715408
v -0.108555 0.191743 -0.715408
v 0.108555 0.191743 -0.715408
v -0.108555 0.191743 -0.850223
v 0.108555 0.191743 -0.850223
v 0.138555 0.014536 -0.636384
v -0.138555 0.014536 -0.636384
v 0.138555 0.014536 -0.919906
v 0.108555 0.045632 -0.889906
v -0.108555 0.224450 -0.889906
v -0.138555 -0.029073 -0.636384
v 0.138555 -0.029073 -0.636384
v 0.138555 -0.029073 -0.919906
v 0.108555 0.080632 -0.850223
v -0.108555 0.080632 -0.850223
v -0.108555 0.045632 -0.889906
v -0.138555 -0.029073 -0.919906
v -0.138555 0.014536 -0.919906
v 0.007500 0.204725 -0.768872
v 0.007500 0.067038 -0.768872
v -0.007500 0.067038 -0.768872
v -0.007500 0.204725 -0.768872
v -0.015000 0.067038 -0.755882
v -0.015000 0.204725 -0.755882
v -0.007500 0.067038 -0.742892
v -0.007500 0.204725 -0.742892
v 0.007500 0.067038 -0.742892
v 0.007500 0.204725 -0.742892
v 0.015000 0.067038 -0.755882
v 0.015000 0.204725 -0.755882
v 0.000000 0.067038 -0.755882
v 0.000000 0.204725 -0.755882
v 0.007500 0.204725 -0.817006
v 0.007500 0.067038 -0.817006
v -0.007500 0.067038 -0.817006
v -0.007500 0.204725 -0.817006
v -0.015000 0.067038 -0.804016
v -0.015000 0.204725 -0.804016
v -0.007500 0.067038 -0.791026
v -0.007500 0.204725 -0.791026
v 0.007500 0.067038 -0.791026
v 0.007500 0.204725 -0.791026
v 0.015000 0.067038 -0.804016
v 0.015000 0.204725 -0.804016
v 0.000000 0.067038 -0.804016
v 0.000000 0.204725 -0.804016
v 0.076403 0.204725 -0.768872
v 0.076403 0.067038 -0.768872
v 0.061403 0.067038 -0.768872
v 0.061403 0.204725 -0.768872
v 0.053903 0.067038 -0.755882
v 0.053903 0.204725 -0.755882
v 0.061403 0.067038 -0.742892
v 0.061403 0.204725 -0.742892
v 0.076403 0.067038 -0.742892
v 0.076403 0.204725 -0.742892
v 0.083903 0.067038 -0.755882
v 0.083903 0.204725 -0.755882
v 0.068903 0.067038 -0.755882
v 0.068903 0.204725 -0.755882
v 0.076403 0.204725 -0.817006
v 0.076403 0.067038 -0.817006
v 0.061403 0.067038 -0.817006
v 0.061403 0.204725 -0.817006
v 0.053903 0.067038 -0.804016
v 0.053903 0.204725 -0.804016
v 0.061403 0.067038 -0.791026
v 0.061403 0.204725 -0.791026
v 0.076403 0.067038 -0.791026
v 0.076403 0.204725 -0.791026
v 0.083903 0.067038 -0.804016
v 0.083903 0.204725 -0.804016
v 0.068903 0.067038 -0.804016
v 0.068903 0.204725 -0.804016
v -0.058661 0.204725 -0.768872
v -0.058661 0.067038 -0.768872
v -0.073661 0.067038 -0.768872
v -0.073661 0.204725 -0.768872
v -0.081161 0.067038 -0.755882
v -0.081161 0.204725 -0.755882
v -0.073661 0.067038 -0.742892
v -0.073661 0.204725 -0.742892
v -0.058661 0.067038 -0.742892
v -0.058661 0.204725 -0.742892
v -0.051161 0.067038 -0.755882
v -0.051161 0.204725 -0.755882
v -0.066161 0.067038 -0.755882
v -0.066161 0.204725 -0.755882
v -0.058661 0.204725 -0.817006
v -0.058661 0.067038 -0.817006
v -0.073661 0.067038 -0.817006
v -0.073661 0.204725 -0.817006
v -0.081161 0.067038 -0.804016
v -0.081161 0.204725 -0.804016
v -0.073661 0.067038 -0.791026
v -0.073661 0.204725 -0.791026
v -0.058661 0.067038 -0.791026
v -0.058661 0.204725 -0.791026
v -0.051161 0.067038 -0.804016
v -0.051161 0.204725 -0.804016
v -0.066161 0.067038 -0.804016
v -0.066161 0.204725 -0.804016

# UV coordinates
vt 0.336979 0.173951
vt 0.336978 0.083031
vt 0.427818 0.083129
vt 0.427657 0.174026
vt 0.548597 0.114973
vt 0.599152 0.114824
vt 0.599001 0.252994
vt 0.548397 0.252802
vt 0.648755 0.690517
vt 0.650652 0.794083
vt 0.640856 0.804504
vt 0.637688 0.682291
vt 0.430088 0.803623
vt 0.430088 0.962104
vt 0.418787 0.953338
vt 0.418787 0.812390
vt 0.479421 0.667749
vt 0.357201 0.664834
vt 0.367602 0.655017
vt 0.471367 0.656859
vt 0.660197 0.858108
vt 0.659321 0.715833
vt 0.669916 0.707006
vt 0.670724 0.866630
vt 0.260584 0.623729
vt 0.261491 0.519952
vt 0.402439 0.520147
vt 0.402862 0.623729
vt 0.566713 0.876577
vt 0.567144 0.667825
vt 0.739216 0.687428
vt 0.740219 0.885505
vt 0.494033 0.738263
vt 0.285283 0.739127
vt 0.483546 0.424522
vt 0.477535 0.419870
vt 0.675613 0.419870
vt 0.669602 0.424522
vt 0.525991 0.988698
vt 0.527743 0.996094
vt 0.437867 0.958025
vt 0.437867 0.807702
vt 0.527743 0.769634
vt 0.525991 0.777030
vt 0.332234 0.078341
vt 0.432508 0.078388
vt 0.432386 0.178715
vt 0.332305 0.178699
vt 0.726989 0.115115
vt 0.726923 0.252909
vt 0.676319 0.253043
vt 0.676426 0.114886
vt 0.612974 0.084325
vt 0.637843 0.059442
vt 0.637611 0.308389
vt 0.612783 0.283478
vt 0.517132 0.308371
vt 0.519838 0.298219
vt 0.534515 0.283567
vt 0.662484 0.283513
vt 0.662659 0.084365
vt 0.534862 0.084200
vt 0.740744 0.283671
vt 0.740787 0.084370
vt 0.272960 0.003906
vt 0.498367 0.004188
vt 0.279130 0.025057
vt 0.496868 0.014318
vt 0.251505 0.524429
vt 0.251505 0.641060
vt 0.241367 0.517261
vt 0.025036 0.517261
vt 0.003906 0.538391
vt 0.003906 0.743730
vt 0.018847 0.764859
vt 0.251505 0.756206
vt 0.242852 0.764859
vt 0.033896 0.260314
vt 0.033898 0.508177
vt 0.003967 0.486971
vt 0.003906 0.259879
vt 0.036917 0.045337
vt 0.007981 0.033531
vt 0.048982 0.033288
vt 0.038688 0.003906
vt 0.269547 0.036429
vt 0.270064 0.260598
vt 0.240155 0.260829
vt 0.240233 0.047589
vt 0.239645 0.508360
vt 0.269547 0.508390
vt 0.228342 0.035292
vt 0.239545 0.006472
vt 0.279245 0.253015
vt 0.007959 0.508637
vt 0.756745 0.308437
vt 0.755393 0.298329
vt 0.769762 0.061015
vt 0.769749 0.298270
vt 0.755416 0.059529
vt 0.496894 0.768177
vt 0.262163 0.768177
vt 0.260584 0.753852
vt 0.507180 0.750033
vt 0.528785 0.752769
vt 0.554513 0.655555
vt 0.552039 0.901306
vt 0.537709 0.899771
vt 0.537709 0.665351
vt 0.505423 0.308250
vt 0.505944 0.060784
vt 0.520287 0.059331
vt 0.771597 0.687246
vt 0.771597 0.885335
vt 0.753377 0.897263
vt 0.751396 0.674711
vt 0.754770 0.655555
vt 0.462912 0.395111
vt 0.576574 0.395111
vt 0.690236 0.395111
vt 0.496197 0.251765
vt 0.279130 0.475939
vt 0.426453 0.476154
vt 0.003906 0.775382
vt 0.201985 0.773938
vt 0.203018 0.915768
vt 0.004929 0.915768
vt 0.689555 0.646957
vt 0.466714 0.646957
vt 0.466714 0.498715
vt 0.691028 0.430626
vt 0.937153 0.646957
vt 0.937153 0.430626
vt 0.421051 0.511176
vt 0.279091 0.510972
vt 0.431702 0.646957
vt 0.431702 0.506567
vt 0.768895 0.308371
vt 0.214958 0.916831
vt 0.215880 0.892703
vt 0.239100 0.891800
vt 0.238490 0.916449
vt 0.215096 0.821546
vt 0.238412 0.822978
vt 0.239476 0.845166
vt 0.215832 0.845241
vt 0.213561 0.797566
vt 0.237393 0.798340
vt 0.237605 0.939268
vt 0.213662 0.940345
vt 0.312389 0.805263
vt 0.313985 0.826089
vt 0.290714 0.823832
vt 0.288229 0.802982
vt 0.314999 0.847643
vt 0.291330 0.847312
vt 0.314828 0.890930
vt 0.313962 0.912304
vt 0.290108 0.913286
vt 0.291576 0.892176
vt 0.312366 0.933332
vt 0.288884 0.936468
vt 0.280735 0.918970
vt 0.279448 0.931757
vt 0.266059 0.932450
vt 0.268091 0.920273
vt 0.264277 0.914905
vt 0.265264 0.892067
vt 0.268192 0.828657
vt 0.281307 0.828886
vt 0.282150 0.841767
vt 0.269577 0.840865
vt 0.264570 0.823097
vt 0.264102 0.799577
vt 0.242506 0.817365
vt 0.241127 0.804182
vt 0.254432 0.804534
vt 0.255184 0.817996
vt 0.265504 0.846215
vt 0.242033 0.910626
vt 0.243197 0.897397
vt 0.255792 0.896956
vt 0.254912 0.910220
vt 0.262131 0.938073
vt 0.315123 0.869141
vt 0.291720 0.868630
vt 0.265639 0.869052
vt 0.243851 0.864037
vt 0.242974 0.850855
vt 0.255898 0.850957
vt 0.256384 0.864215
vt 0.216348 0.869132
vt 0.239659 0.869649
vt 0.211078 0.773938
vt 0.235479 0.775721
vt 0.261157 0.778384
vt 0.286446 0.782071
vt 0.310645 0.785505
vt 0.269867 0.874441
vt 0.282539 0.873980
vt 0.281973 0.886878
vt 0.268818 0.886644
vt 0.310742 0.953567
vt 0.285904 0.956698
vt 0.260189 0.959604
vt 0.235303 0.961944
vt 0.211078 0.963888
vt 0.782553 0.124466
vt 0.782773 0.110592
vt 0.784469 0.110684
vt 0.784407 0.124562
vt 0.786164 0.110601
vt 0.786275 0.124483
vt 0.787870 0.110358
vt 0.788035 0.124262
vt 0.789619 0.110081
vt 0.789753 0.124031
vt 0.791418 0.109913
vt 0.791544 0.123927
vt 0.793224 0.109923
vt 0.793343 0.123966
vt 0.779092 0.124035
vt 0.779298 0.110116
vt 0.781060 0.110357
vt 0.780816 0.124240
vt 0.782578 0.136609
vt 0.784388 0.136512
vt 0.786212 0.136601
vt 0.787947 0.136851
vt 0.789656 0.137118
vt 0.791439 0.137246
vt 0.793230 0.137213
vt 0.779144 0.137080
vt 0.780860 0.136853
vt 0.782566 0.150529
vt 0.784335 0.150515
vt 0.786104 0.150543
vt 0.787871 0.150611
vt 0.789650 0.150687
vt 0.791447 0.150736
vt 0.793248 0.150746
vt 0.779013 0.150630
vt 0.780797 0.150579
vt 0.782458 0.164788
vt 0.784260 0.164815
vt 0.786063 0.164810
vt 0.787856 0.164777
vt 0.789645 0.164742
vt 0.791440 0.164732
vt 0.793238 0.164761
vt 0.778875 0.164690
vt 0.780666 0.164737
vt 0.782420 0.178179
vt 0.784211 0.178143
vt 0.786002 0.178183
vt 0.787789 0.178283
vt 0.789578 0.178390
vt 0.791373 0.178449
vt 0.793170 0.178433
vt 0.778841 0.178350
vt 0.780632 0.178266
vt 0.782366 0.192365
vt 0.784153 0.192382
vt 0.785938 0.192385
vt 0.787727 0.192375
vt 0.789520 0.192364
vt 0.791315 0.192365
vt 0.793111 0.192384
vt 0.778781 0.192311
vt 0.780576 0.192337
vt 0.789478 0.243026
vt 0.789478 0.256956
vt 0.787694 0.256962
vt 0.787699 0.243025
vt 0.785911 0.256956
vt 0.785920 0.243024
vt 0.784128 0.256941
vt 0.784141 0.243024
vt 0.782345 0.256924
vt 0.782361 0.243024
vt 0.780563 0.256915
vt 0.780581 0.243023
vt 0.778781 0.256917
vt 0.778801 0.243020
vt 0.793038 0.243029
vt 0.793043 0.256928
vt 0.791261 0.256941
vt 0.791258 0.243028
vt 0.789483 0.229144
vt 0.787705 0.229143
vt 0.785927 0.229143
vt 0.784149 0.229143
vt 0.782370 0.229143
vt 0.780592 0.229143
vt 0.778814 0.229141
vt 0.793040 0.229147
vt 0.791262 0.229146
vt 0.789487 0.215186
vt 0.787710 0.215185
vt 0.785934 0.215184
vt 0.784157 0.215184
vt 0.782380 0.215184
vt 0.780603 0.215183
vt 0.778827 0.215182
vt 0.793041 0.215188
vt 0.791264 0.215187
vt 0.789492 0.201394
vt 0.787716 0.201392
vt 0.785940 0.201392
vt 0.784164 0.201394
vt 0.782389 0.201395
vt 0.780614 0.201395
vt 0.778838 0.201393
vt 0.793043 0.201399
vt 0.791268 0.201397
vt 0.789435 0.087302
vt 0.789434 0.101091
vt 0.787659 0.101092
vt 0.787661 0.087302
vt 0.785883 0.101091
vt 0.785887 0.087302
vt 0.784108 0.101089
vt 0.784113 0.087301
vt 0.782332 0.101086
vt 0.782339 0.087300
vt 0.780557 0.101084
vt 0.780565 0.087300
vt 0.778781 0.101084
vt 0.778791 0.087299
vt 0.792984 0.087303
vt 0.792986 0.101088
vt 0.791210 0.101090
vt 0.791209 0.087303
vt 0.789437 0.073046
vt 0.787664 0.073045
vt 0.785891 0.073045
vt 0.784118 0.073044
vt 0.782345 0.073044
vt 0.780572 0.073043
vt 0.778799 0.073042
vt 0.792983 0.073046
vt 0.791210 0.073046
vt 0.789439 0.059132
vt 0.787667 0.059131
vt 0.785895 0.059131
vt 0.784123 0.059130
vt 0.782351 0.059130
vt 0.780579 0.059129
vt 0.778807 0.059128
vt 0.792983 0.059132
vt 0.791211 0.059132
vt 0.789441 0.045414
vt 0.787670 0.045414
vt 0.785898 0.045413
vt 0.784127 0.045413
vt 0.782356 0.045412
vt 0.780585 0.045412
vt 0.778814 0.045411
vt 0.792983 0.045414
vt 0.791212 0.045414
vt 0.789443 0.031491
vt 0.787672 0.031490
vt 0.785902 0.031490
vt 0.784132 0.031489
vt 0.782361 0.031489
vt 0.780591 0.031488
vt 0.778821 0.031487
vt 0.792983 0.031491
vt 0.791213 0.031491
vt 0.789445 0.017682
vt 0.787675 0.017682
vt 0.785906 0.017682
vt 0.784136 0.017681
vt 0.782367 0.017681
vt 0.780597 0.017680
vt 0.778827 0.017679
vt 0.792984 0.017683
vt 0.791215 0.017683
vt 0.789448 0.003909
vt 0.787679 0.003908
vt 0.785909 0.003908
vt 0.784140 0.003908
vt 0.782371 0.003907
vt 0.780602 0.003907
vt 0.778833 0.003906
vt 0.792986 0.003910
vt 0.791217 0.003909
vt 0.334695 0.874643
vt 0.334695 0.888360
vt 0.332926 0.888360
vt 0.332926 0.874643
vt 0.331157 0.888360
vt 0.331158 0.874642
vt 0.329387 0.888359
vt 0.329389 0.874642
vt 0.327618 0.888359
vt 0.327621 0.874642
vt 0.325849 0.888358
vt 0.325852 0.874642
vt 0.324080 0.888358
vt 0.324084 0.874641
vt 0.338232 0.874643
vt 0.338233 0.888359
vt 0.336464 0.888360
vt 0.336463 0.874642
vt 0.334695 0.860557
vt 0.332927 0.860557
vt 0.331159 0.860557
vt 0.329391 0.860556
vt 0.327623 0.860556
vt 0.325855 0.860556
vt 0.324087 0.860556
vt 0.338231 0.860557
vt 0.336463 0.860557
vt 0.334696 0.846614
vt 0.332928 0.846614
vt 0.331161 0.846614
vt 0.329393 0.846613
vt 0.327625 0.846613
vt 0.325858 0.846613
vt 0.324090 0.846613
vt 0.338231 0.846614
vt 0.336464 0.846614
vt 0.334697 0.832766
vt 0.332929 0.832766
vt 0.331162 0.832766
vt 0.329395 0.832766
vt 0.327627 0.832766
vt 0.325860 0.832766
vt 0.324092 0.832765
vt 0.338231 0.832767
vt 0.336464 0.832766
vt 0.334698 0.818641
vt 0.332931 0.818641
vt 0.331163 0.818641
vt 0.329396 0.818641
vt 0.327629 0.818640
vt 0.325862 0.818640
vt 0.324095 0.818640
vt 0.338232 0.818641
vt 0.336465 0.818641
vt 0.334699 0.805061
vt 0.332932 0.805061
vt 0.331165 0.805061
vt 0.329398 0.805060
vt 0.327631 0.805059
vt 0.325864 0.805059
vt 0.324097 0.805058
vt 0.338233 0.805060
vt 0.336466 0.805061
vt 0.334699 0.791029
vt 0.332933 0.791030
vt 0.331166 0.791029
vt 0.329400 0.791028
vt 0.327633 0.791026
vt 0.325866 0.791025
vt 0.324099 0.791026
vt 0.338233 0.791027
vt 0.336466 0.791028
vt 0.334701 0.777170
vt 0.332934 0.777167
vt 0.331167 0.777169
vt 0.329400 0.777175
vt 0.327633 0.777182
vt 0.325867 0.777185
vt 0.324100 0.777183
vt 0.338235 0.777184
vt 0.336468 0.777177
vt 0.681278 0.372537
vt 0.681589 0.386385
vt 0.679780 0.386438
vt 0.679553 0.372674
vt 0.677968 0.386433
vt 0.677822 0.372617
vt 0.676174 0.386392
vt 0.676109 0.372405
vt 0.674399 0.386343
vt 0.674382 0.372173
vt 0.672632 0.386319
vt 0.672608 0.372081
vt 0.670866 0.386328
vt 0.670834 0.372196
vt 0.684710 0.371999
vt 0.685152 0.386216
vt 0.683379 0.386301
vt 0.682982 0.372263
vt 0.681223 0.357910
vt 0.679409 0.357985
vt 0.677594 0.357977
vt 0.675795 0.357888
vt 0.674019 0.357782
vt 0.672252 0.357741
vt 0.670485 0.357809
vt 0.684792 0.357617
vt 0.683017 0.357764
vt 0.680831 0.344074
vt 0.679138 0.344232
vt 0.677437 0.344171
vt 0.675755 0.343953
vt 0.674046 0.343728
vt 0.672274 0.343654
vt 0.670503 0.343777
vt 0.684212 0.343510
vt 0.682503 0.343780
vt 0.680830 0.330051
vt 0.678985 0.330144
vt 0.677131 0.330131
vt 0.675346 0.330028
vt 0.673605 0.329917
vt 0.671845 0.329886
vt 0.670084 0.329962
vt 0.684341 0.329721
vt 0.682600 0.329880
vt 0.680448 0.317777
vt 0.678758 0.317934
vt 0.677060 0.317852
vt 0.675363 0.317566
vt 0.673638 0.317252
vt 0.671869 0.317085
vt 0.670098 0.317150
vt 0.683858 0.317114
vt 0.682136 0.317443
vt 0.260960 0.008243
vt 0.259163 0.008243
vt 0.260062 0.006075
vt 0.262230 0.006973
vt 0.262230 0.005177
vt 0.260960 0.003906
vt 0.259164 0.003906
vt 0.257893 0.005176
vt 0.257893 0.006973
vt 0.457166 0.417173
vt 0.458932 0.417173
vt 0.458049 0.419305
vt 0.460182 0.418422
vt 0.460182 0.420189
vt 0.458933 0.421438
vt 0.457166 0.421438
vt 0.455917 0.420189
vt 0.455917 0.418422
vt 0.657707 0.684574
vt 0.657707 0.655555
vt 0.686727 0.655555
vt 0.686727 0.684574
vt 0.559233 0.440410
vt 0.559233 0.433316
vt 0.588253 0.433316
vt 0.588253 0.440410
vt 0.340479 0.636437
vt 0.340333 0.649692
vt 0.327077 0.649659
vt 0.327138 0.636319
vt 0.695375 0.655555
vt 0.702468 0.655555
vt 0.702468 0.684574
vt 0.695375 0.684574
vt 0.754028 0.032926
vt 0.754028 0.003906
vt 0.761122 0.003906
vt 0.761122 0.032926
vt 0.265987 0.731928
vt 0.265987 0.702908
vt 0.273081 0.702908
vt 0.273081 0.731928
vt 0.564540 0.445813
vt 0.582946 0.445813
vt 0.766526 0.027619
vt 0.766526 0.009213
vt 0.707872 0.679267
vt 0.707872 0.660862
vt 0.260584 0.708215
vt 0.260584 0.726621
vt 0.344362 0.653776
vt 0.323004 0.653488
vt 0.323288 0.632416
vt 0.344362 0.632416
vt 0.277275 0.693905
vt 0.260584 0.676691
vt 0.314340 0.676691
vt 0.297648 0.693905
vt 0.560813 0.378082
vt 0.543628 0.361360
vt 0.598972 0.361360
vt 0.581788 0.378082
vt 0.546291 0.454509
vt 0.550575 0.458564
vt 0.525871 0.458568
vt 0.529920 0.454267
vt 0.525871 0.433319
vt 0.530154 0.437375
vt 0.260584 0.632416
vt 0.314340 0.632416
vt 0.546526 0.437617
vt 0.550575 0.433316
vt 0.837520 0.317085
vt 0.837520 0.370841
vt 0.810009 0.370841
vt 0.810009 0.317085
vt 0.776629 0.370841
vt 0.776629 0.317085
vt 0.574573 0.030309
vt 0.567145 0.041007
vt 0.513389 0.041007
vt 0.505961 0.030309
vt 0.517792 0.725754
vt 0.507093 0.718326
vt 0.507093 0.662983
vt 0.517792 0.655555
vt 0.517753 0.325157
vt 0.534937 0.341878
vt 0.479594 0.341878
vt 0.496778 0.325157
vt 0.644728 0.317085
vt 0.661419 0.334299
vt 0.607663 0.334299
vt 0.624354 0.317085
vt 0.505961 0.019511
vt 0.574573 0.019511
vt 0.528589 0.655555
vt 0.528589 0.725754
vt 0.347219 0.804678
vt 0.400975 0.804678
vt 0.400975 0.838058
vt 0.347219 0.838058
vt 0.347219 0.777167
vt 0.400975 0.777167
vt 0.607663 0.378574
vt 0.661419 0.378574
vt 0.767753 0.317085
vt 0.767753 0.387285
vt 0.699142 0.387285
vt 0.699142 0.317085
vt 0.516969 0.457566
vt 0.509541 0.468265
vt 0.454197 0.468265
vt 0.446769 0.457566
vt 0.582910 0.039896
vt 0.590338 0.029197
vt 0.644094 0.029197
vt 0.651522 0.039896
vt 0.446769 0.446769
vt 0.516969 0.446769
vt 0.582910 0.050693
vt 0.651522 0.050693
vt 0.498427 0.708501
vt 0.498427 0.675121
vt 0.543628 0.317085
vt 0.555767 0.325751
vt 0.555767 0.353262
vt 0.589146 0.353262
vt 0.598972 0.317085
vt 0.589146 0.325751
vt 0.464022 0.476931
vt 0.497402 0.476931
vt 0.479594 0.386153
vt 0.491732 0.377487
vt 0.491732 0.349976
vt 0.525112 0.349976
vt 0.534937 0.386153
vt 0.525112 0.377487
vt 0.793637 0.300056
vt 0.793637 0.265965
vt 0.797351 0.265965
vt 0.797351 0.300056
vt 0.801065 0.265965
vt 0.801065 0.300056
vt 0.778781 0.300056
vt 0.778781 0.265965
vt 0.782495 0.265965
vt 0.782495 0.300056
vt 0.786209 0.265965
vt 0.786209 0.300056
vt 0.789923 0.265965
vt 0.789923 0.300056
vt 0.439478 0.474212
vt 0.443192 0.474212
vt 0.441335 0.477429
vt 0.437621 0.477429
vt 0.439478 0.480645
vt 0.443192 0.480645
vt 0.445049 0.477429
vt 0.416825 0.526384
vt 0.413111 0.526384
vt 0.414968 0.523168
vt 0.411254 0.523168
vt 0.413111 0.519952
vt 0.416825 0.519952
vt 0.418682 0.523168
vt 0.795252 0.689646
vt 0.795252 0.655555
vt 0.798966 0.655555
vt 0.798966 0.689646
vt 0.802680 0.655555
vt 0.802680 0.689646
vt 0.780396 0.689646
vt 0.780396 0.655555
vt 0.784110 0.655555
vt 0.784110 0.689646
vt 0.787824 0.655555
vt 0.787824 0.689646
vt 0.791538 0.655555
vt 0.791538 0.689646
vt 0.541181 0.003906
vt 0.544895 0.003906
vt 0.543038 0.007123
vt 0.539324 0.007123
vt 0.541181 0.010339
vt 0.544895 0.010339
vt 0.546752 0.007123
vt 0.416825 0.541451
vt 0.413111 0.541451
vt 0.414968 0.538235
vt 0.411254 0.538235
vt 0.413111 0.535019
vt 0.416825 0.535019
vt 0.418682 0.538235
vt 0.791485 0.413597
vt 0.791485 0.379506
vt 0.795199 0.379506
vt 0.795199 0.413597
vt 0.798913 0.379506
vt 0.798913 0.413597
vt 0.776629 0.413597
vt 0.776629 0.379506
vt 0.780343 0.379506
vt 0.780343 0.413597
vt 0.784057 0.379506
vt 0.784057 0.413597
vt 0.787771 0.379506
vt 0.787771 0.413597
vt 0.490598 0.310090
vt 0.494312 0.310090
vt 0.492455 0.313306
vt 0.488741 0.313306
vt 0.490598 0.316522
vt 0.494312 0.316522
vt 0.496169 0.313306
vt 0.512608 0.010339
vt 0.508894 0.010339
vt 0.510751 0.007123
vt 0.507037 0.007123
vt 0.508894 0.003906
vt 0.512608 0.003906
vt 0.514465 0.007123
vt 0.737674 0.037997
vt 0.737674 0.003906
vt 0.741388 0.003906
vt 0.741388 0.037997
vt 0.745102 0.003906
vt 0.745102 0.037997
vt 0.722818 0.037997
vt 0.722818 0.003906
vt 0.726532 0.003906
vt 0.726532 0.037997
vt 0.730246 0.003906
vt 0.730246 0.037997
vt 0.733960 0.003906
vt 0.733960 0.037997
vt 0.502437 0.374124
vt 0.506151 0.374124
vt 0.504294 0.377341
vt 0.500580 0.377341
vt 0.502437 0.380557
vt 0.506151 0.380557
vt 0.508008 0.377341
vt 0.506151 0.365490
vt 0.502437 0.365490
vt 0.504294 0.362274
vt 0.500580 0.362274
vt 0.502437 0.359057
vt 0.506151 0.359057
vt 0.508008 0.362274
vt 0.675254 0.037997
vt 0.675254 0.003906
vt 0.678968 0.003906
vt 0.678968 0.037997
vt 0.682682 0.003906
vt 0.682682 0.037997
vt 0.660398 0.037997
vt 0.660398 0.003906
vt 0.664112 0.003906
vt 0.664112 0.037997
vt 0.667826 0.003906
vt 0.667826 0.037997
vt 0.671540 0.003906
vt 0.671540 0.037997
vt 0.525037 0.003906
vt 0.528751 0.003906
vt 0.526894 0.007123
vt 0.523180 0.007123
vt 0.525037 0.010339
vt 0.528751 0.010339
vt 0.530608 0.007123
vt 0.456645 0.437597
vt 0.452931 0.437597
vt 0.454788 0.434380
vt 0.451074 0.434380
vt 0.452931 0.431164
vt 0.456645 0.431164
vt 0.458502 0.434380
vt 0.706464 0.037997
vt 0.706464 0.003906
vt 0.710178 0.003906
vt 0.710178 0.037997
vt 0.713892 0.003906
vt 0.713892 0.037997
vt 0.691608 0.037997
vt 0.691608 0.003906
vt 0.695322 0.003906
vt 0.695322 0.037997
vt 0.699036 0.003906
vt 0.699036 0.037997
vt 0.702750 0.003906
vt 0.702750 0.037997
vt 0.005763 0.003906
vt 0.009477 0.003906
vt 0.007620 0.007123
vt 0.003906 0.007123
vt 0.005763 0.010339
vt 0.009477 0.010339
vt 0.011334 0.007123
vt 0.472788 0.438135
vt 0.469074 0.438135
vt 0.470931 0.434918
vt 0.467217 0.434918
vt 0.469074 0.431702
vt 0.472788 0.431702
vt 0.474645 0.434918

# vertex normals
vn 0.000000 -0.000000 1.000000
vn 1.000000 0.000000 0.000000
vn 0.810767 0.225211 0.540311
vn 0.810767 0.225211 0.540311
vn 0.810767 0.225211 0.540311
vn 0.768153 0.634466 -0.085987
vn 0.768153 0.634466 0.085987
vn 0.944444 0.328673 0.000000
vn 0.944464 0.328615 0.000000
vn 0.807941 0.224955 -0.544634
vn 0.807941 0.224955 -0.544634
vn 0.807941 0.224955 -0.544634
vn 0.923552 -0.383474 0.000406
vn 0.923552 -0.383474 0.000406
vn 0.923552 -0.383474 0.000406
vn 0.962174 0.272435 0.000000
vn 0.258694 0.075628 0.962994
vn 0.258694 0.075628 0.962994
vn 0.258694 0.075628 0.962994
vn 0.258694 0.075628 0.962994
vn 0.476200 -0.879337 0.000000
vn 0.476199 -0.879337 0.000000
vn 0.258694 0.075628 -0.962994
vn 0.258694 0.075628 -0.962994
vn 0.258694 0.075628 -0.962994
vn -0.043791 0.969951 -0.239326
vn 0.096302 0.938483 -0.331625
vn 0.096302 0.938483 0.331625
vn -0.043791 0.969951 0.239326
vn 0.742774 0.634348 0.214219
vn 0.742774 0.634348 -0.214219
vn 0.000000 -0.749620 0.661869
vn 0.000000 -0.749620 0.661869
vn 0.000000 -0.749620 0.661869
vn 0.749622 0.000000 0.661867
vn 0.749622 0.000000 0.661867
vn -0.000000 0.749623 0.661865
vn -0.000000 0.749623 0.661865
vn -0.000000 0.749623 0.661865
vn -0.749621 -0.000000 0.661867
vn -0.749621 -0.000000 0.661867
vn -0.749621 -0.000000 0.661867
vn -0.749621 -0.000000 0.661867
vn 0.999467 -0.032636 0.000000
vn 0.994379 0.105879 0.000000
vn 1.000000 -0.000000 0.000000
vn 1.000000 -0.000000 0.000000
vn 1.000000 -0.000000 0.000000
vn 0.999467 -0.032636 0.000000
vn 0.788940 0.000000 -0.614470
vn 0.788940 0.000000 -0.614470
vn 0.959896 0.280357 0.000000
vn 0.959896 0.280357 0.000000
vn 0.788940 0.000000 0.614469
vn 0.959896 -0.280357 0.000000
vn 0.999044 -0.043718 0.000000
vn 0.959896 0.280357 0.000000
vn 0.959896 0.280357 0.000000
vn 0.959896 0.280357 0.000000
vn 0.788940 0.000000 0.614470
vn 0.788940 0.000000 0.614470
vn 0.959896 -0.280357 0.000000
vn 0.999044 -0.043718 0.000000
vn 0.959896 -0.280357 0.000000
vn 0.788940 0.000000 -0.614470
vn 0.788940 0.000000 -0.614470
vn 0.000000 0.000000 1.000000
vn 0.000000 -1.000000 0.000000
vn 0.000000 -1.000000 0.000000
vn 0.000000 -1.000000 0.000000
vn 0.000000 -1.000000 0.000000
vn -0.707107 0.000000 0.707107
vn -0.710083 0.005989 0.704093
vn -0.708710 0.003217 0.705493
vn -0.707107 0.000000 0.707107
vn -0.707107 0.500000 0.500000
vn -0.707107 0.500000 0.500000
vn -0.707107 0.000000 -0.707107
vn -0.707107 0.000000 -0.707107
vn -0.707107 0.707107 0.000000
vn -0.707107 0.500000 -0.500000
vn -0.707107 0.500000 -0.500000
vn -1.000000 0.000000 0.000000
vn -0.794104 0.232587 0.561517
vn 0.695910 0.112902 0.709199
vn 0.707102 0.003704 0.707102
vn 0.695903 0.112955 0.709197
vn 0.678961 0.209572 0.703628
vn 0.678961 0.209572 0.703628
vn -0.000659 0.707035 0.707178
vn -0.037872 0.702498 0.710677
vn -0.000519 0.707050 0.707163
vn 0.683331 0.208042 -0.699840
vn 0.698596 0.108657 -0.707218
vn 0.698603 0.108593 -0.707221
vn 0.683331 0.208042 -0.699840
vn 0.705675 0.002854 -0.708530
vn 0.706343 0.001524 -0.707868
vn 0.603293 0.797513 -0.003274
vn 0.603293 0.797513 -0.003274
vn 0.603293 0.797513 -0.003274
vn -0.000467 0.707033 -0.707181
vn -0.037778 0.700586 -0.712567
vn -0.000771 0.706984 -0.707229
vn 0.992546 0.121872 -0.000000
vn 0.958675 0.284503 -0.000000
vn 0.958675 0.284503 0.000000
vn 0.992381 0.123203 0.000000
vn 0.958675 0.284503 0.000000
vn 0.958675 0.284503 0.000000
vn 0.958675 0.284503 -0.000000
vn 0.958675 0.284503 -0.000000
vn 0.000000 1.000000 0.000000
vn 0.000000 0.000000 -1.000000
vn 0.000000 0.707107 0.707107
vn 0.000000 0.707107 -0.707107
vn 0.703346 0.103003 0.703346
vn 0.561517 0.232587 -0.794104
vn 0.482393 0.875955 0.000000
vn 0.482393 0.875955 0.000000
vn 0.482393 0.875955 0.000000
vn 0.482393 0.875955 0.000000
vn 0.482393 0.875955 0.000000
vn 0.482393 0.875955 0.000000
vn 0.482393 0.875955 0.000000
vn 0.482393 0.875955 -0.000000
vn 0.482393 0.875955 -0.000000
vn 0.482393 0.875955 0.000000
vn 0.482393 0.875955 0.000000
vn 0.482393 0.875955 -0.000000
vn 0.482393 0.875955 0.000000
vn 0.482393 0.875955 -0.000000
vn 0.482393 0.875955 0.000000
vn 0.482393 0.875955 0.000000
vn 0.482393 0.875955 0.000000
vn 0.482393 0.875955 0.000000
vn 0.482393 0.875955 0.000000
vn 0.482402 0.875950 0.000000
vn 0.482402 0.875950 0.000000
vn 0.482402 0.875950 0.000000
vn 0.482402 0.875950 0.000000
vn 0.482393 0.875955 0.000000
vn 0.482393 0.875955 0.000000
vn 0.482392 0.875955 0.000000
vn 0.482392 0.875955 0.000000
vn 0.482392 0.875955 0.000000
vn 0.482392 0.875955 0.000000
vn 0.482396 0.875953 0.000000
vn 0.482396 0.875953 0.000000
vn 0.482396 0.875953 0.000000
vn 0.482394 0.875955 0.000000
vn 0.482394 0.875955 0.000000
vn 0.482393 0.875955 0.000000
vn 0.482392 0.875955 0.000000
vn 0.482392 0.875955 0.000000
vn 0.482394 0.875955 0.000000
vn 0.482393 0.875955 -0.000000
vn 0.482393 0.875955 -0.000000
vn 0.482393 0.875955 -0.000000
vn 0.482393 0.875955 -0.000001
vn 0.482393 0.875955 0.000000
vn 0.482389 0.875957 0.000000
vn 0.482389 0.875957 0.000000
vn 0.482389 0.875957 0.000000
vn 0.482393 0.875955 0.000001
vn 0.482393 0.875955 0.000000
vn 0.482393 0.875955 0.000000
vn 0.482393 0.875955 0.000000
vn 0.114456 0.472825 0.873691
vn 0.114456 0.472825 0.873691
vn 0.114456 0.472825 0.873691
vn 0.114456 0.472825 0.873691
vn 0.682956 -0.730459 0.000000
vn 0.682956 -0.730459 0.000000
vn 0.682956 -0.730459 0.000000
vn 0.237216 0.240425 -0.941236
vn 0.237216 0.240425 -0.941236
vn 0.237216 0.240425 -0.941236
vn 0.237216 0.240424 -0.941236
vn -0.162771 0.986664 0.000000
vn -0.162771 0.986664 0.000000
vn -0.162755 0.986667 0.000000
vn 0.212482 0.291541 0.932660
vn 0.212482 0.291541 0.932660
vn 0.212482 0.291541 0.932660
vn 0.682937 -0.730477 0.000000
vn 0.682937 -0.730477 0.000000
vn 0.138356 0.431490 -0.891445
vn 0.138356 0.431490 -0.891445
vn 0.122967 0.485769 -0.865394
vn 0.122967 0.485769 -0.865394
vn 0.122967 0.485769 -0.865394
vn 0.122967 0.485769 -0.865395
vn -0.162828 0.986654 0.000000
vn -0.162828 0.986654 0.000000
vn 0.245889 0.257546 0.934457
vn 0.245889 0.257546 0.934456
vn 0.245889 0.257546 0.934456
vn 0.683053 -0.730369 0.000000
vn 0.683053 -0.730369 0.000000
vn 0.683052 -0.730369 0.000000
vn 0.221098 0.307924 -0.925364
vn 0.221098 0.307924 -0.925364
vn 0.221098 0.307924 -0.925364
vn -0.162812 0.986657 0.000000
vn -0.162812 0.986657 0.000000
vn 0.146885 0.445317 0.883243
vn 0.146885 0.445317 0.883243
vn 0.146885 0.445317 0.883243
vn 0.146885 0.445317 0.883243
vn 0.683046 -0.730376 0.000000
vn 0.683046 -0.730376 0.000000
vn 0.683046 -0.730376 0.000000
vn 0.171351 0.402085 -0.899425
vn 0.171351 0.402085 -0.899425
vn 0.171351 0.402085 -0.899425
vn -0.162801 0.986659 0.000000
vn -0.162801 0.986659 0.000000
vn 0.196166 0.356209 0.913583
vn 0.196166 0.356209 0.913583
vn 0.683040 -0.730381 0.000000
vn -0.162746 0.986668 0.000000
vn -0.162746 0.986668 0.000000
vn 0.162806 0.387376 0.907432
vn 0.162806 0.387376 0.907432
vn 0.162806 0.387376 0.907432
vn 0.682934 -0.730480 0.000000
vn 0.682934 -0.730480 0.000000
vn 0.682934 -0.730480 0.000000
vn 0.187592 0.340641 -0.921289
vn 0.187592 0.340641 -0.921289
vn 0.187592 0.340641 -0.921289
vn 0.187592 0.340641 -0.921289
vn 0.450465 -0.877868 0.162569
vn 0.441362 -0.889839 -0.115697
vn 0.441362 -0.889839 -0.115696
vn 0.449731 -0.874188 0.183130
vn -0.318269 -0.928638 0.190619
vn -0.311455 -0.942306 -0.122701
vn -0.311455 -0.942306 -0.122701
vn -0.318674 -0.931496 0.175393
vn -0.895187 -0.434520 0.099161
vn -0.891424 -0.449466 -0.057826
vn -0.891424 -0.449467 -0.057826
vn -0.896010 -0.437300 0.077034
vn -0.948862 0.306665 -0.074954
vn -0.947124 0.318402 0.039694
vn -0.947124 0.318402 0.039694
vn -0.949398 0.308648 -0.058141
vn -0.447831 0.869075 -0.210134
vn -0.441515 0.890508 0.109816
vn -0.441515 0.890508 0.109816
vn -0.448831 0.873229 -0.189793
vn 0.317254 0.925720 -0.205894
vn 0.311583 0.943093 0.116152
vn 0.311583 0.943093 0.116152
vn 0.316693 0.922441 -0.220924
vn 0.895655 0.436697 -0.084246
vn 0.891473 0.449604 0.055964
vn 0.891473 0.449604 0.055964
vn 0.894686 0.433852 -0.106345
vn 0.949527 -0.308948 0.054302
vn 0.947101 -0.318322 -0.040881
vn 0.947101 -0.318322 -0.040881
vn 0.949051 -0.306992 0.071124
vn 0.444800 -0.551874 0.705400
vn 0.443813 -0.567007 0.693925
vn -0.313625 -0.597968 0.737613
vn -0.314172 -0.586856 0.746255
vn -0.892252 -0.291961 0.344449
vn -0.893357 -0.274772 0.355547
vn -0.947368 0.210287 -0.241397
vn -0.948063 0.196876 -0.249835
vn -0.442482 0.588658 -0.676529
vn -0.443718 0.573177 -0.688900
vn 0.313221 0.610749 -0.727241
vn 0.312528 0.622091 -0.717864
vn 0.893122 0.279964 -0.352070
vn 0.891880 0.297512 -0.340641
vn 0.948151 -0.194443 0.251398
vn 0.947512 -0.207641 0.243116
vn 0.446473 -0.278029 0.850507
vn 0.446455 -0.278926 0.850222
vn -0.315586 -0.295551 0.901695
vn -0.315596 -0.294886 0.901910
vn -0.894000 -0.140319 0.425529
vn -0.894018 -0.139389 0.425797
vn -0.948494 0.099289 -0.300835
vn -0.948504 0.098568 -0.301038
vn -0.446442 0.281146 -0.849498
vn -0.446461 0.280177 -0.849808
vn 0.315615 0.297356 -0.901092
vn 0.315604 0.298081 -0.900856
vn 0.894025 0.139614 -0.425707
vn 0.894006 0.140576 -0.425430
vn 0.948498 -0.098658 0.301029
vn 0.948488 -0.099361 0.300829
vn 0.447447 -0.132573 0.884429
vn 0.447438 -0.131130 0.884649
vn -0.316341 -0.139311 0.938361
vn -0.316347 -0.140393 0.938197
vn -0.894492 -0.065269 0.442293
vn -0.894502 -0.066701 0.442061
vn -0.948748 0.045722 -0.312709
vn -0.948753 0.046786 -0.312535
vn -0.447435 0.130372 -0.884763
vn -0.447444 0.131765 -0.884551
vn 0.316412 0.139547 -0.938302
vn 0.316406 0.138496 -0.938459
vn 0.894495 0.066207 -0.442149
vn 0.894485 0.064794 -0.442378
vn 0.948750 -0.047230 0.312479
vn 0.948744 -0.046160 0.312656
vn 0.446477 -0.025505 0.894432
vn 0.446451 -0.026193 0.894424
vn -0.315545 -0.027615 0.948509
vn -0.315559 -0.027101 0.948519
vn -0.893996 -0.013552 0.447870
vn -0.894021 -0.012858 0.447840
vn -0.948473 0.009495 -0.316714
vn -0.948488 0.008966 -0.316687
vn -0.446481 0.027203 -0.894379
vn -0.446507 0.026492 -0.894388
vn 0.315631 0.028264 -0.948461
vn 0.315617 0.028796 -0.948450
vn 0.894001 0.012830 -0.447881
vn 0.893975 0.013536 -0.447912
vn 0.948495 -0.009165 0.316661
vn 0.948480 -0.009688 0.316688
vn 0.447274 -0.013372 0.894297
vn 0.447274 -0.013395 0.894296
vn -0.316184 -0.014190 0.948592
vn -0.316184 -0.014174 0.948592
vn -0.894400 -0.006793 0.447216
vn -0.894400 -0.006770 0.447216
vn -0.948694 0.004529 -0.316163
vn -0.948694 0.004511 -0.316164
vn -0.447268 0.013116 -0.894304
vn -0.447268 0.013094 -0.894304
vn 0.316217 0.013901 -0.948585
vn 0.316217 0.013919 -0.948585
vn 0.894392 0.006452 -0.447236
vn 0.894393 0.006475 -0.447236
vn 0.948693 -0.004836 0.316160
vn 0.948693 -0.004853 0.316160
vn 0.447292 -0.028759 0.893925
vn 0.447292 -0.028762 0.893925
vn -0.316203 -0.030500 0.948201
vn -0.316204 -0.030498 0.948201
vn -0.894404 -0.014462 0.447025
vn -0.894404 -0.014459 0.447025
vn -0.948700 0.009963 -0.316020
vn -0.948700 0.009961 -0.316020
vn -0.447241 0.028463 -0.893960
vn -0.447241 0.028461 -0.893960
vn 0.316204 0.030196 -0.948210
vn 0.316204 0.030199 -0.948210
vn 0.894404 0.014153 -0.447035
vn 0.894404 0.014156 -0.447035
vn 0.948693 -0.010266 0.316031
vn 0.948693 -0.010268 0.316031
vn 0.447284 -0.036278 0.893656
vn 0.447284 -0.036279 0.893656
vn -0.316232 -0.038476 0.947901
vn -0.316232 -0.038475 0.947901
vn -0.894400 -0.018214 0.446897
vn -0.894400 -0.018213 0.446897
vn -0.948701 0.012637 -0.315922
vn -0.948701 0.012637 -0.315922
vn -0.447264 0.036009 -0.893677
vn -0.447264 0.036008 -0.893677
vn 0.316228 0.038203 -0.947913
vn 0.316228 0.038204 -0.947913
vn 0.894400 0.017937 -0.446907
vn 0.894400 0.017938 -0.446907
vn 0.948698 -0.012917 0.315920
vn 0.948698 -0.012918 0.315920
vn 0.447271 -0.040551 0.893479
vn 0.447271 -0.040551 0.893479
vn -0.316206 -0.043001 0.947716
vn -0.316206 -0.043001 0.947716
vn -0.894406 -0.020340 0.446794
vn -0.894406 -0.020340 0.446794
vn -0.948699 0.014162 -0.315863
vn -0.948699 0.014162 -0.315863
vn -0.447272 0.040289 -0.893490
vn -0.447272 0.040288 -0.893490
vn 0.316203 0.042745 -0.947728
vn 0.316203 0.042746 -0.947728
vn 0.894400 0.020087 -0.446817
vn 0.894400 0.020088 -0.446817
vn 0.948703 -0.014417 0.315840
vn 0.948703 -0.014417 0.315840
vn 0.447275 -0.043059 0.893359
vn 0.447275 -0.043059 0.893359
vn -0.316166 -0.045664 0.947604
vn -0.316166 -0.045664 0.947604
vn -0.894417 -0.021589 0.446712
vn -0.894417 -0.021589 0.446712
vn -0.948694 0.015065 -0.315837
vn -0.948694 0.015065 -0.315837
vn -0.447249 0.042822 -0.893384
vn -0.447249 0.042821 -0.893384
vn 0.316134 0.045431 -0.947626
vn 0.316134 0.045431 -0.947626
vn 0.894404 0.021357 -0.446749
vn 0.894404 0.021357 -0.446749
vn 0.948701 -0.015297 0.315805
vn 0.948701 -0.015297 0.315805
vn 0.447292 -0.044717 0.893269
vn 0.447292 -0.044717 0.893269
vn -0.316186 -0.047428 0.947511
vn -0.316186 -0.047428 0.947511
vn -0.894414 -0.022413 0.446677
vn -0.894414 -0.022413 0.446677
vn -0.948697 0.015670 -0.315798
vn -0.948697 0.015670 -0.315798
vn -0.447215 0.044520 -0.893318
vn -0.447215 0.044520 -0.893318
vn 0.316124 0.047222 -0.947542
vn 0.316124 0.047222 -0.947542
vn 0.894408 0.022206 -0.446701
vn 0.894408 0.022206 -0.446701
vn 0.948697 -0.015875 0.315787
vn 0.948697 -0.015875 0.315787
vn 0.447287 -0.045910 0.893211
vn 0.447287 -0.045910 0.893211
vn -0.316179 -0.048691 0.947449
vn -0.316179 -0.048691 0.947449
vn -0.894408 -0.023002 0.446659
vn -0.894408 -0.023002 0.446659
vn -0.948705 0.016103 -0.315752
vn -0.948705 0.016103 -0.315752
vn -0.447202 0.045729 -0.893263
vn -0.447202 0.045729 -0.893263
vn 0.316173 0.048506 -0.947461
vn 0.316173 0.048506 -0.947461
vn 0.894408 0.022817 -0.446669
vn 0.894408 0.022817 -0.446669
vn 0.948695 -0.016289 0.315774
vn 0.948695 -0.016289 0.315774
vn 0.447274 -0.046825 0.893171
vn 0.447274 -0.046825 0.893171
vn -0.316148 -0.049663 0.947409
vn -0.316148 -0.049663 0.947409
vn -0.894408 -0.023456 0.446637
vn -0.894408 -0.023456 0.446637
vn -0.948705 0.016437 -0.315734
vn -0.948705 0.016437 -0.315734
vn -0.447243 0.046655 -0.893195
vn -0.447243 0.046655 -0.893195
vn 0.316206 0.049496 -0.947398
vn 0.316206 0.049496 -0.947398
vn 0.894408 0.023291 -0.446645
vn 0.894408 0.023291 -0.446645
vn 0.948694 -0.016609 0.315759
vn 0.948694 -0.016609 0.315759
vn 0.447279 -0.047531 0.893131
vn 0.447279 -0.047531 0.893131
vn -0.316155 -0.050413 0.947367
vn -0.316155 -0.050413 0.947367
vn -0.894407 -0.023806 0.446620
vn -0.894407 -0.023806 0.446620
vn -0.948705 0.016702 -0.315723
vn -0.948705 0.016702 -0.315723
vn -0.447252 0.047385 -0.893152
vn -0.447252 0.047385 -0.893152
vn 0.316185 0.050266 -0.947365
vn 0.316185 0.050266 -0.947365
vn 0.894408 0.023659 -0.446627
vn 0.948697 -0.016852 0.315737
vn 0.948697 -0.016852 0.315737
vn 0.447296 -0.048097 0.893092
vn 0.447296 -0.048097 0.893092
vn -0.316171 -0.051014 0.947330
vn -0.316171 -0.051014 0.947330
vn -0.894407 -0.024085 0.446605
vn -0.894407 -0.024085 0.446605
vn -0.948703 0.016914 -0.315716
vn -0.948703 0.016914 -0.315716
vn -0.447241 0.047966 -0.893126
vn -0.447241 0.047966 -0.893126
vn 0.316169 0.050881 -0.947338
vn 0.316169 0.050881 -0.947338
vn 0.894407 0.023952 -0.446612
vn 0.894407 0.023952 -0.446612
vn 0.948697 -0.017045 0.315728
vn 0.948697 -0.017045 0.315728
vn 0.447286 -0.048549 0.893073
vn 0.447286 -0.048549 0.893073
vn -0.316169 -0.051495 0.947304
vn -0.316169 -0.051495 0.947304
vn -0.894410 -0.024307 0.446587
vn -0.894410 -0.024307 0.446587
vn -0.948699 0.017086 -0.315718
vn -0.948699 0.017086 -0.315718
vn -0.447239 0.048434 -0.893102
vn -0.447239 0.048434 -0.893102
vn 0.316169 0.051377 -0.947311
vn 0.316169 0.051377 -0.947311
vn 0.894403 0.024193 -0.446607
vn 0.894403 0.024193 -0.446607
vn 0.948697 -0.017200 0.315720
vn 0.948697 -0.017200 0.315720
vn 0.447260 -0.048910 0.893066
vn 0.447260 -0.048910 0.893066
vn -0.316160 -0.051878 0.947286
vn -0.316160 -0.051878 0.947286
vn -0.894415 -0.024483 0.446568
vn -0.948698 0.017225 -0.315715
vn -0.948698 0.017225 -0.315715
vn -0.447231 0.048815 -0.893085
vn -0.447231 0.048815 -0.893085
vn 0.316182 0.051780 -0.947284
vn 0.316182 0.051780 -0.947284
vn 0.894395 0.024386 -0.446612
vn 0.894395 0.024386 -0.446612
vn 0.948701 -0.017322 0.315701
vn 0.948701 -0.017322 0.315701
vn 0.447239 -0.049200 0.893060
vn 0.447239 -0.049200 0.893060
vn -0.316155 -0.052185 0.947271
vn -0.316155 -0.052185 0.947271
vn -0.894416 -0.024623 0.446557
vn -0.894416 -0.024623 0.446557
vn -0.948695 0.017336 -0.315717
vn -0.948695 0.017336 -0.315717
vn -0.447259 0.049114 -0.893055
vn -0.447259 0.049114 -0.893055
vn 0.316212 0.052100 -0.947257
vn 0.316212 0.052100 -0.947257
vn 0.894399 0.024539 -0.446596
vn 0.894399 0.024539 -0.446596
vn 0.948700 -0.017418 0.315697
vn 0.948700 -0.017418 0.315697
vn 0.447248 -0.049401 0.893045
vn 0.447248 -0.049401 0.893045
vn -0.316162 -0.052396 0.947257
vn -0.316162 -0.052396 0.947257
vn -0.894411 -0.024718 0.446563
vn -0.894411 -0.024718 0.446563
vn -0.948693 0.017416 -0.315718
vn -0.948693 0.017416 -0.315718
vn -0.447270 0.049325 -0.893038
vn -0.447270 0.049325 -0.893038
vn 0.316195 0.052323 -0.947250
vn 0.316195 0.052323 -0.947250
vn 0.894404 0.024651 -0.446580
vn 0.894404 0.024651 -0.446580
vn 0.948695 -0.017487 0.315707
vn 0.948695 -0.017487 0.315707
vn 0.447250 -0.049509 0.893038
vn 0.447250 -0.049509 0.893038
vn -0.316169 -0.052515 0.947248
vn -0.316169 -0.052515 0.947248
vn -0.894403 -0.024772 0.446575
vn -0.894403 -0.024772 0.446575
vn -0.948696 0.017464 -0.315706
vn -0.447245 0.049453 -0.893043
vn -0.447245 0.049453 -0.893043
vn 0.316167 0.052454 -0.947252
vn 0.316167 0.052454 -0.947252
vn 0.894401 0.024715 -0.446582
vn 0.894401 0.024715 -0.446582
vn 0.948696 -0.017521 0.315705
vn 0.948696 -0.017521 0.315705
vn 0.447233 -0.049493 0.893047
vn 0.447233 -0.049493 0.893047
vn -0.316156 -0.052494 0.947254
vn -0.894407 -0.024761 0.446568
vn -0.894407 -0.024761 0.446568
vn -0.948698 0.017466 -0.315701
vn -0.948698 0.017466 -0.315701
vn -0.447232 0.049452 -0.893050
vn -0.447232 0.049452 -0.893050
vn 0.316187 0.052451 -0.947246
vn 0.316187 0.052451 -0.947246
vn 0.894399 0.024715 -0.446586
vn 0.894399 0.024715 -0.446586
vn 0.948698 -0.017511 0.315697
vn 0.948698 -0.017511 0.315697
vn 0.447250 -0.049294 0.893049
vn 0.447250 -0.049294 0.893049
vn -0.316133 -0.052281 0.947273
vn -0.316133 -0.052281 0.947273
vn -0.894416 -0.024656 0.446556
vn -0.894416 -0.024656 0.446556
vn -0.948697 0.017399 -0.315707
vn -0.948697 0.017399 -0.315707
vn -0.447247 0.049253 -0.893053
vn -0.447247 0.049253 -0.893053
vn 0.316196 0.052248 -0.947254
vn 0.316196 0.052248 -0.947254
vn 0.894402 0.024623 -0.446586
vn 0.894402 0.024623 -0.446586
vn 0.948697 -0.017439 0.315706
vn 0.948697 -0.017439 0.315706
vn 0.447282 -0.049171 0.893040
vn 0.447282 -0.049171 0.893040
vn -0.316164 -0.052159 0.947270
vn -0.316164 -0.052159 0.947270
vn -0.894408 -0.024597 0.446576
vn -0.894408 -0.024597 0.446576
vn -0.948697 0.017363 -0.315709
vn -0.948697 0.017363 -0.315709
vn -0.447257 0.049143 -0.893054
vn -0.447257 0.049143 -0.893054
vn 0.316171 0.052128 -0.947269
vn 0.316171 0.052128 -0.947269
vn 0.894407 0.024568 -0.446579
vn 0.894407 0.024568 -0.446579
vn 0.948694 -0.017393 0.315718
vn 0.948694 -0.017393 0.315718
vn 0.447293 -0.050474 0.892962
vn 0.447294 -0.050473 0.892962
vn -0.316214 -0.053539 0.947176
vn -0.316214 -0.053539 0.947176
vn -0.894395 -0.025247 0.446566
vn -0.894395 -0.025248 0.446566
vn -0.948702 0.017829 -0.315670
vn -0.948702 0.017830 -0.315670
vn -0.447243 0.050458 -0.892988
vn -0.447243 0.050458 -0.892988
vn 0.316186 0.053515 -0.947187
vn 0.316186 0.053515 -0.947187
vn 0.894407 0.025222 -0.446543
vn 0.894407 0.025222 -0.446543
vn 0.948692 -0.017851 0.315697
vn 0.948692 -0.017850 0.315698
vn 0.447261 -0.059269 0.892437
vn 0.447261 -0.059250 0.892439
vn -0.316185 -0.062850 0.946613
vn -0.316185 -0.062864 0.946612
vn -0.894384 -0.029622 0.446318
vn -0.894384 -0.029641 0.446317
vn -0.948698 0.020917 -0.315490
vn -0.948698 0.020932 -0.315489
vn -0.447208 0.059175 -0.892470
vn -0.447208 0.059195 -0.892469
vn 0.316188 0.062783 -0.946617
vn 0.316188 0.062769 -0.946618
vn 0.894397 0.029611 -0.446292
vn 0.894397 0.029592 -0.446293
vn 0.948685 -0.020956 0.315528
vn 0.948685 -0.020942 0.315529
vn 0.447051 -0.230370 0.864335
vn 0.447511 -0.217699 0.867376
vn -0.316315 -0.233017 0.919591
vn -0.316058 -0.242446 0.917239
vn -0.894639 -0.105158 0.434238
vn -0.894167 -0.118471 0.431776
vn -0.948843 0.074079 -0.306935
vn -0.948567 0.084444 -0.305107
vn -0.447470 0.219211 -0.867016
vn -0.446968 0.232841 -0.863716
vn 0.316027 0.245076 -0.916550
vn 0.316311 0.234887 -0.919116
vn 0.894167 0.119189 -0.431577
vn 0.894661 0.105368 -0.434142
vn 0.948559 -0.084088 0.305229
vn 0.948827 -0.073997 0.307006
vn 0.442317 -0.331003 0.833542
vn 0.442109 -0.332509 0.833053
vn -0.312127 -0.351830 0.882492
vn -0.312243 -0.350724 0.882891
vn -0.891697 -0.168716 0.420013
vn -0.891920 -0.166987 0.420230
vn -0.947223 0.120230 -0.297176
vn -0.947358 0.118795 -0.297321
vn -0.441737 0.337076 -0.831414
vn -0.441984 0.335222 -0.832031
vn 0.311961 0.355487 -0.881084
vn 0.311822 0.356868 -0.880575
vn 0.891861 0.168029 -0.419940
vn 0.891618 0.169943 -0.419685
vn 0.947377 -0.118281 0.297467
vn 0.947249 -0.119615 0.297341
vn 0.442319 -0.446190 0.777990
vn 0.443250 -0.433114 0.784820
vn -0.312909 -0.461066 0.830365
vn -0.312388 -0.470743 0.825115
vn -0.892632 -0.214033 0.396734
vn -0.891666 -0.228203 0.390968
vn -0.947773 0.151211 -0.280822
vn -0.947224 0.162002 -0.276627
vn -0.443173 0.434134 -0.784300
vn -0.442232 0.447280 -0.777413
vn 0.312300 0.471943 -0.824462
vn 0.312826 0.462223 -0.829753
vn 0.891649 0.228495 -0.390836
vn 0.892621 0.214280 -0.396625
vn 0.947232 -0.161855 0.276686
vn 0.947778 -0.151087 0.280872
vn 0.445428 -0.394594 0.803673
vn 0.444995 -0.403685 0.799386
vn -0.314435 -0.426996 0.847824
vn -0.314678 -0.420258 0.851094
vn -0.893255 -0.203329 0.400940
vn -0.893693 -0.193513 0.404802
vn -0.948135 0.142511 -0.284130
vn -0.948372 0.135011 -0.286990
vn -0.445466 0.394123 -0.803883
vn -0.445857 0.384812 -0.808165
vn 0.315041 0.409345 -0.856263
vn 0.314822 0.416266 -0.853000
vn 0.893791 0.190972 -0.405791
vn 0.893376 0.200869 -0.401909
vn 0.948338 -0.136279 0.286503
vn 0.948092 -0.143737 0.283656
vn 0.442484 -0.170105 0.880495
vn 0.442484 -0.170105 0.880496
vn -0.312397 -0.180164 0.932711
vn -0.312397 -0.180164 0.932711
vn -0.892044 -0.085826 0.443725
vn -0.892044 -0.085826 0.443725
vn -0.947438 0.060866 -0.314097
vn -0.947438 0.060866 -0.314097
vn -0.442525 0.170791 -0.880342
vn -0.442525 0.170791 -0.880342
vn 0.312446 0.180943 -0.932544
vn 0.312446 0.180943 -0.932544
vn 0.892047 0.085994 -0.443686
vn 0.947436 -0.060770 0.314120
vn 0.947436 -0.060770 0.314120
vn 0.000051 -0.227221 0.973843
vn 0.000018 -0.227233 0.973840
vn 0.000001 -0.227156 0.973858
vn -0.000016 -0.227143 0.973861
vn -0.000101 -0.227142 0.973862
vn -0.000055 -0.227175 0.973854
vn 0.000051 -0.227126 0.973865
vn 0.000056 -0.227071 0.973878
vn 0.000001 -0.227132 0.973864
vn -0.000165 -0.999291 -0.037637
vn -0.000044 -0.999293 -0.037590
vn -0.000073 -0.999291 -0.037656
vn 0.000017 -0.999289 -0.037698
vn -0.000091 -0.999288 -0.037737
vn -0.000145 -0.999292 -0.037616
vn -0.000042 -0.999294 -0.037562
vn 0.000000 -0.999290 -0.037674
vn -0.000116 -0.999288 -0.037735
vn 0.000000 0.188212 -0.982128
vn 0.000000 0.188212 -0.982128
vn 0.000000 0.188212 -0.982128
vn 0.188212 0.000000 -0.982129
vn 0.000000 -0.188212 -0.982128
vn 0.000000 -0.188212 -0.982128
vn 0.000000 -0.188212 -0.982128
vn -0.188212 0.000000 -0.982129
vn -0.188212 0.000000 -0.982129
vn 0.000000 0.798101 -0.602523
vn 0.798101 0.000000 -0.602524
vn 0.000000 -0.798101 -0.602523
vn -0.798101 0.000000 -0.602524
vn 0.000000 0.998284 0.058552
vn 0.000000 0.998284 0.058552
vn 0.060275 0.998182 0.000000
vn 0.060275 0.998182 0.000000
vn 0.060275 0.998182 0.000000
vn 0.000000 0.464145 0.885759
vn 0.000000 0.464145 0.885759
vn 0.891204 0.453602 0.000000
vn 0.891204 0.453602 0.000000
vn -0.891204 0.453602 0.000000
vn -0.891204 0.453602 0.000000
vn 0.000000 0.464145 -0.885759
vn 0.000000 0.464145 -0.885759
vn 0.423348 0.806539 0.412640
vn 0.423348 0.806539 0.412640
vn -0.423348 0.806539 0.412640
vn -0.423348 0.806539 0.412640
vn 0.423348 0.806539 -0.412640
vn 0.423348 0.806539 -0.412640
vn -0.060275 0.998182 0.000000
vn -0.060275 0.998182 0.000000
vn -0.060275 0.998182 0.000000
vn 0.000000 0.998284 -0.058552
vn 0.000000 0.998284 -0.058552
vn -0.423348 0.806539 -0.412640
vn -0.423348 0.806539 -0.412640
vn 1.000000 -0.000000 0.000000
vn 1.000000 -0.000000 0.000000
vn 1.000000 -0.000000 0.000000
vn 1.000000 0.000000 0.000000
vn 1.000000 0.000000 0.000000
vn 1.000000 0.000000 0.000000
vn -1.000000 -0.000000 0.000000
vn -1.000000 0.000000 0.000000
vn -1.000000 -0.000000 0.000000
vn -1.000000 0.000000 0.000000
vn -1.000000 0.000000 0.000000
vn -1.000000 0.000000 0.000000
vn -1.000000 0.000000 0.000000
vn -1.000000 0.000000 0.000000
vn 0.000000 0.000000 -1.000000
vn -0.866025 0.000000 -0.500000
vn -0.866025 0.000000 0.500000
vn -0.000000 0.000000 1.000000
vn 0.866025 0.000000 0.500000
vn 0.866025 0.000000 -0.500000
vn 0.000000 -1.000000 0.000000
vn 0.000000 -1.000000 -0.000000
vn 0.000000 -1.000000 -0.000000
vn 0.000000 1.000000 -0.000000
vn 0.000000 1.000000 0.000000

# Mesh
g polySurface2
usemtl standardSurface1
f 1/1/1 2/2/1 3/3/1
f 3/3/1 4/4/1 1/1/1
f 5/5/2 6/6/2 7/7/2
f 7/7/2 8/8/2 5/5/2
f 9/9/3 10/10/4 11/11/5
f 11/11/5 12/12/3 9/9/3
f 13/13/6 11/14/7 10/15/8
f 10/15/8 14/16/9 13/13/6
f 15/17/10 13/18/11 14/19/11
f 14/19/11 16/20/12 15/17/10
f 16/21/13 9/22/14 12/23/14
f 12/23/14 15/24/15 16/21/13
f 16/25/16 14/26/9 10/27/8
f 10/27/8 9/28/16 16/25/16
f 11/11/17 17/29/18 18/30/19
f 18/30/19 12/12/20 11/11/17
f 12/23/21 18/31/22 19/32/22
f 19/32/22 15/24/21 12/23/21
f 15/17/23 19/33/24 20/34/25
f 20/34/25 13/18/25 15/17/23
f 21/35/26 20/36/27 17/37/28
f 17/37/28 22/38/29 21/35/26
f 22/39/29 17/40/28 11/14/7
f 11/14/7 23/41/30 22/39/29
f 23/41/30 11/14/7 13/13/6
f 13/13/6 24/42/31 23/41/30
f 24/42/31 13/13/6 20/43/27
f 20/43/27 21/44/26 24/42/31
f 2/2/32 25/45/33 26/46/32
f 26/46/32 3/3/34 2/2/32
f 3/3/35 26/46/35 27/47/36
f 27/47/36 4/4/35 3/3/35
f 4/4/37 27/47/37 28/48/38
f 28/48/38 1/1/39 4/4/37
f 1/1/40 28/48/41 25/45/42
f 25/45/42 2/2/43 1/1/40
f 29/49/2 30/50/2 31/51/2
f 31/51/2 32/52/2 29/49/2
f 33/53/44 34/54/45 35/55/46
f 35/55/46 36/56/47 33/53/44
f 35/55/46 37/57/48 36/56/47
f 37/57/48 38/58/2 36/56/47
f 38/58/2 39/59/2 36/56/47
f 40/60/2 35/55/46 34/54/45
f 34/54/45 41/61/49 40/60/2
f 6/6/50 33/53/50 36/56/50
f 36/56/50 7/7/51 6/6/50
f 7/7/52 36/56/52 39/59/52
f 39/59/52 8/8/53 7/7/52
f 8/8/54 39/59/54 42/62/54
f 42/62/54 5/5/54 8/8/54
f 5/5/55 42/62/56 33/53/44
f 33/53/44 6/6/55 5/5/55
f 30/50/57 43/63/58 40/60/59
f 40/60/59 31/51/57 30/50/57
f 31/51/60 40/60/61 41/61/61
f 41/61/61 32/52/61 31/51/60
f 32/52/62 41/61/49 44/64/63
f 44/64/63 29/49/64 32/52/62
f 29/49/65 44/64/65 43/63/66
f 43/63/66 30/50/65 29/49/65
f 45/65/67 46/66/67 47/67/67
f 47/67/67 46/66/67 25/45/67
f 46/66/67 48/68/67 25/45/67
f 48/68/67 26/46/67 25/45/67
f 37/69/68 35/70/69 49/71/68
f 49/71/68 35/70/69 50/72/70
f 50/72/70 35/70/69 51/73/71
f 51/73/71 35/70/69 52/74/68
f 52/74/68 35/70/69 45/75/68
f 53/76/68 46/77/68 35/70/69
f 35/70/69 46/77/68 45/75/68
f 54/78/72 52/79/73 47/80/74
f 47/80/74 55/81/72 54/78/72
f 56/82/75 54/78/72 55/81/72
f 55/81/72 57/83/75 56/82/75
f 58/84/76 56/82/76 57/83/77
f 57/83/77 59/85/77 58/84/76
f 60/86/78 61/87/78 62/88/78
f 62/88/78 63/89/78 60/86/78
f 51/90/79 62/88/78 61/87/78
f 61/87/78 50/91/79 51/90/79
f 64/92/80 58/84/80 59/85/80
f 59/85/80 65/93/80 64/92/80
f 63/89/81 64/92/82 65/93/82
f 65/93/82 60/86/82 63/89/81
f 54/78/83 62/88/83 51/90/83
f 51/90/83 52/79/83 54/78/83
f 62/88/83 54/78/83 63/89/83
f 63/89/83 54/78/83 64/92/83
f 54/78/83 56/82/83 64/92/83
f 56/82/83 58/84/83 64/92/83
f 28/48/67 55/94/67 47/67/67
f 47/67/67 25/45/67 28/48/67
f 47/80/74 52/79/73 45/95/84
f 35/55/46 40/60/2 53/96/2
f 53/96/2 40/60/2 66/97/2
f 66/97/2 40/60/2 43/63/2
f 67/98/85 48/99/86 66/97/86
f 66/97/86 68/100/87 67/98/85
f 69/101/88 67/102/85 68/103/87
f 68/103/87 70/104/89 69/101/88
f 69/101/90 70/104/91 71/105/92
f 72/106/93 73/107/94 74/108/95
f 74/108/95 75/109/96 72/106/93
f 49/110/97 74/111/95 73/112/94
f 73/112/94 38/58/98 49/110/97
f 76/113/99 71/114/99 70/115/100
f 70/115/100 72/116/101 76/113/99
f 76/113/102 72/116/103 75/117/104
f 68/118/105 34/119/45 20/36/106
f 20/36/106 34/119/45 17/37/107
f 34/119/45 73/120/108 17/37/107
f 17/29/107 73/107/108 72/106/109
f 72/106/109 18/30/110 17/29/107
f 26/46/67 48/68/67 67/121/67
f 67/121/67 27/47/67 26/46/67
f 39/59/2 38/58/2 73/112/108
f 73/112/108 42/62/56 39/59/2
f 42/62/56 73/112/108 34/54/45
f 34/54/45 33/53/44 42/62/56
f 41/61/49 34/54/45 68/100/105
f 68/100/105 44/64/63 41/61/49
f 44/64/63 68/100/105 66/97/2
f 66/97/2 43/63/2 44/64/63
f 19/33/111 70/104/112 68/103/105
f 68/103/105 20/34/106 19/33/111
f 18/31/110 72/116/109 70/115/112
f 70/115/112 19/32/111 18/31/110
f 57/122/67 55/94/67 67/121/67
f 67/121/67 69/123/67 57/122/67
f 65/124/113 59/125/113 71/126/113
f 71/126/113 76/127/113 65/124/113
f 61/128/114 60/129/114 75/130/114
f 75/130/114 74/131/114 61/128/114
f 50/132/114 61/128/114 74/131/114
f 74/131/114 49/133/114 50/132/114
f 27/47/67 67/121/67 55/94/67
f 55/94/67 28/48/67 27/47/67
f 71/134/92 59/135/115 57/122/115
f 57/122/115 69/123/90 71/134/92
f 75/130/104 60/129/116 65/136/116
f 65/136/116 76/137/102 75/130/104
f 48/99/86 46/138/117 53/96/117
f 53/96/117 66/97/86 48/99/86
f 49/110/97 38/58/98 37/57/118

# Mesh
g polySurface3
usemtl standardSurface1
f 77/139/119 78/140/120 79/141/121
f 79/141/121 80/142/122 77/139/119
f 81/143/123 82/144/124 83/145/125
f 83/145/125 84/146/120 81/143/123
f 81/143/123 85/147/126 86/148/127
f 86/148/127 82/144/124 81/143/123
f 80/142/122 87/149/128 88/150/129
f 88/150/129 77/139/119 80/142/122
f 89/151/130 90/152/131 91/153/131
f 91/153/131 92/154/132 89/151/130
f 90/152/131 93/155/133 94/156/133
f 94/156/133 91/153/131 90/152/131
f 95/157/133 96/158/134 97/159/134
f 97/159/134 98/160/135 95/157/133
f 96/158/134 99/161/136 100/162/137
f 100/162/137 97/159/134 96/158/134
f 101/163/138 102/164/139 103/165/140
f 103/165/140 104/166/141 101/163/138
f 105/167/142 106/168/143 98/160/135
f 98/160/135 97/159/134 105/167/142
f 107/169/144 108/170/145 109/171/146
f 109/171/146 110/172/147 107/169/144
f 111/173/135 112/174/124 92/154/132
f 92/154/132 91/153/131 111/173/135
f 113/175/148 114/176/148 115/177/149
f 115/177/149 116/178/150 113/175/148
f 82/144/124 111/173/124 117/179/124
f 117/179/124 83/145/125 82/144/124
f 118/180/151 119/181/152 120/182/151
f 120/182/151 121/183/152 118/180/151
f 105/167/153 122/184/120 87/149/128
f 87/149/128 80/142/122 105/167/153
f 93/155/133 123/185/134 124/186/135
f 124/186/135 94/156/133 93/155/133
f 125/187/134 117/179/134 94/156/133
f 94/156/133 124/186/135 125/187/134
f 126/188/154 127/189/154 128/190/155
f 128/190/155 129/191/154 126/188/154
f 130/192/156 84/146/120 83/145/125
f 83/145/125 131/193/120 130/192/156
f 22/194/157 132/195/158 86/148/127
f 86/148/127 85/147/126 22/194/157
f 132/195/158 133/196/133 112/174/124
f 112/174/124 86/148/127 132/195/158
f 133/196/133 134/197/159 92/154/132
f 92/154/132 112/174/124 133/196/133
f 23/198/160 89/151/130 92/154/132
f 92/154/132 134/197/159 23/198/160
f 130/192/156 131/193/120 79/141/121
f 79/141/121 78/140/120 130/192/156
f 131/193/120 125/187/135 106/168/161
f 106/168/161 79/141/121 131/193/120
f 135/199/162 136/200/162 137/201/163
f 137/201/163 138/202/164 135/199/162
f 123/185/134 95/157/133 98/160/135
f 98/160/135 124/186/135 123/185/134
f 24/203/165 139/204/166 100/162/137
f 100/162/137 99/161/136 24/203/165
f 139/204/166 140/205/124 122/184/120
f 122/184/120 100/162/137 139/204/166
f 140/205/124 141/206/167 87/149/128
f 87/149/128 122/184/120 140/205/124
f 141/206/167 21/207/168 88/150/129
f 88/150/129 87/149/128 141/206/167
f 102/164/169 100/162/170 122/184/171
f 122/184/171 103/165/172 102/164/169
f 103/165/173 122/184/174 105/167/173
f 105/167/173 104/166/175 103/165/173
f 104/166/176 105/167/177 97/159/178
f 97/159/178 101/163/179 104/166/176
f 101/163/180 97/159/181 100/162/181
f 100/162/181 102/164/181 101/163/180
f 108/170/182 91/153/182 94/156/182
f 94/156/182 109/171/182 108/170/182
f 109/171/183 94/156/183 117/179/184
f 117/179/184 110/172/185 109/171/183
f 110/172/186 117/179/187 111/173/187
f 111/173/187 107/169/187 110/172/186
f 107/169/188 111/173/189 91/153/189
f 91/153/189 108/170/189 107/169/188
f 114/176/190 86/148/191 112/174/192
f 112/174/192 115/177/193 114/176/190
f 115/177/194 112/174/195 111/173/195
f 111/173/195 116/178/194 115/177/194
f 116/178/196 111/173/197 82/144/198
f 82/144/198 113/175/198 116/178/196
f 113/175/199 82/144/200 86/148/199
f 86/148/199 114/176/201 113/175/199
f 119/181/202 79/141/203 106/168/204
f 106/168/204 120/182/203 119/181/202
f 120/182/205 106/168/206 105/167/206
f 105/167/206 121/183/206 120/182/205
f 121/183/207 105/167/208 80/142/209
f 80/142/209 118/180/210 121/183/207
f 118/180/211 80/142/212 79/141/213
f 79/141/213 119/181/213 118/180/211
f 127/189/214 83/145/214 117/179/215
f 117/179/215 128/190/216 127/189/214
f 128/190/217 117/179/218 125/187/218
f 125/187/218 129/191/218 128/190/217
f 129/191/219 125/187/220 131/193/220
f 131/193/220 126/188/220 129/191/219
f 126/188/221 131/193/221 83/145/221
f 83/145/221 127/189/221 126/188/221
f 136/200/222 124/186/222 98/160/222
f 98/160/222 137/201/223 136/200/222
f 137/201/224 98/160/225 106/168/226
f 106/168/226 138/202/224 137/201/224
f 138/202/227 106/168/228 125/187/229
f 125/187/229 135/199/229 138/202/227
f 135/199/230 125/187/231 124/186/232
f 124/186/232 136/200/233 135/199/230

# Mesh
g pCylinder1
usemtl standardSurface1
f 142/208/234 143/209/235 144/210/236
f 144/210/236 145/211/237 142/208/234
f 145/211/238 144/210/239 146/212/240
f 146/212/240 147/213/241 145/211/238
f 147/213/242 146/212/243 148/214/244
f 148/214/244 149/215/245 147/213/242
f 149/215/246 148/214/247 150/216/248
f 150/216/248 151/217/249 149/215/246
f 151/217/250 150/216/251 152/218/252
f 152/218/252 153/219/253 151/217/250
f 153/219/254 152/218/255 154/220/256
f 154/220/256 155/221/257 153/219/254
f 155/222/258 154/223/259 156/224/260
f 156/224/260 157/225/261 155/222/258
f 157/225/262 156/224/263 143/209/264
f 143/209/264 142/208/265 157/225/262
f 158/226/266 142/208/234 145/211/237
f 145/211/237 159/227/267 158/226/266
f 159/227/268 145/211/238 147/213/241
f 147/213/241 160/228/269 159/227/268
f 160/228/270 147/213/242 149/215/245
f 149/215/245 161/229/271 160/228/270
f 161/229/272 149/215/246 151/217/249
f 151/217/249 162/230/273 161/229/272
f 162/230/274 151/217/250 153/219/253
f 153/219/253 163/231/275 162/230/274
f 163/231/276 153/219/254 155/221/257
f 155/221/257 164/232/277 163/231/276
f 164/233/278 155/222/258 157/225/261
f 157/225/261 165/234/279 164/233/278
f 165/234/280 157/225/262 142/208/265
f 142/208/265 158/226/281 165/234/280
f 166/235/282 158/226/266 159/227/267
f 159/227/267 167/236/283 166/235/282
f 167/236/284 159/227/268 160/228/269
f 160/228/269 168/237/285 167/236/284
f 168/237/286 160/228/270 161/229/271
f 161/229/271 169/238/287 168/237/286
f 169/238/288 161/229/272 162/230/273
f 162/230/273 170/239/289 169/238/288
f 170/239/290 162/230/274 163/231/275
f 163/231/275 171/240/291 170/239/290
f 171/240/292 163/231/276 164/232/277
f 164/232/277 172/241/293 171/240/292
f 172/242/294 164/233/278 165/234/279
f 165/234/279 173/243/295 172/242/294
f 173/243/296 165/234/280 158/226/281
f 158/226/281 166/235/297 173/243/296
f 174/244/298 166/235/282 167/236/283
f 167/236/283 175/245/299 174/244/298
f 175/245/300 167/236/284 168/237/285
f 168/237/285 176/246/301 175/245/300
f 176/246/302 168/237/286 169/238/287
f 169/238/287 177/247/303 176/246/302
f 177/247/304 169/238/288 170/239/289
f 170/239/289 178/248/305 177/247/304
f 178/248/306 170/239/290 171/240/291
f 171/240/291 179/249/307 178/248/306
f 179/249/308 171/240/292 172/241/293
f 172/241/293 180/250/309 179/249/308
f 180/251/310 172/242/294 173/243/295
f 173/243/295 181/252/311 180/251/310
f 181/252/312 173/243/296 166/235/297
f 166/235/297 174/244/313 181/252/312
f 182/253/314 174/244/298 175/245/299
f 175/245/299 183/254/315 182/253/314
f 183/254/316 175/245/300 176/246/301
f 176/246/301 184/255/317 183/254/316
f 184/255/318 176/246/302 177/247/303
f 177/247/303 185/256/319 184/255/318
f 185/256/320 177/247/304 178/248/305
f 178/248/305 186/257/321 185/256/320
f 186/257/322 178/248/306 179/249/307
f 179/249/307 187/258/323 186/257/322
f 187/258/324 179/249/308 180/250/309
f 180/250/309 188/259/325 187/258/324
f 188/260/326 180/251/310 181/252/311
f 181/252/311 189/261/327 188/260/326
f 189/261/328 181/252/312 174/244/313
f 174/244/313 182/253/329 189/261/328
f 190/262/330 182/253/314 183/254/315
f 183/254/315 191/263/331 190/262/330
f 191/263/332 183/254/316 184/255/317
f 184/255/317 192/264/333 191/263/332
f 192/264/334 184/255/318 185/256/319
f 185/256/319 193/265/335 192/264/334
f 193/265/336 185/256/320 186/257/321
f 186/257/321 194/266/337 193/265/336
f 194/266/338 186/257/322 187/258/323
f 187/258/323 195/267/339 194/266/338
f 195/267/340 187/258/324 188/259/325
f 188/259/325 196/268/341 195/267/340
f 196/269/342 188/260/326 189/261/327
f 189/261/327 197/270/343 196/269/342
f 197/270/344 189/261/328 182/253/329
f 182/253/329 190/262/345 197/270/344
f 198/271/346 190/272/330 191/273/331
f 191/273/331 199/274/347 198/271/346
f 199/274/348 191/273/332 192/275/333
f 192/275/333 200/276/349 199/274/348
f 200/276/350 192/275/334 193/277/335
f 193/277/335 201/278/351 200/276/350
f 201/278/352 193/277/336 194/279/337
f 194/279/337 202/280/353 201/278/352
f 202/280/354 194/279/338 195/281/339
f 195/281/339 203/282/355 202/280/354
f 203/282/356 195/281/340 196/283/341
f 196/283/341 204/284/357 203/282/356
f 204/285/358 196/286/342 197/287/343
f 197/287/343 205/288/359 204/285/358
f 205/288/360 197/287/344 190/272/345
f 190/272/345 198/271/361 205/288/360
f 206/289/362 198/271/346 199/274/347
f 199/274/347 207/290/363 206/289/362
f 207/290/364 199/274/348 200/276/349
f 200/276/349 208/291/365 207/290/364
f 208/291/366 200/276/350 201/278/351
f 201/278/351 209/292/367 208/291/366
f 209/292/368 201/278/352 202/280/353
f 202/280/353 210/293/369 209/292/368
f 210/293/370 202/280/354 203/282/355
f 203/282/355 211/294/371 210/293/370
f 211/294/372 203/282/356 204/284/357
f 204/284/357 212/295/373 211/294/372
f 212/296/374 204/285/358 205/288/359
f 205/288/359 213/297/375 212/296/374
f 213/297/376 205/288/360 198/271/361
f 198/271/361 206/289/377 213/297/376
f 214/298/378 206/289/362 207/290/363
f 207/290/363 215/299/379 214/298/378
f 215/299/380 207/290/364 208/291/365
f 208/291/365 216/300/381 215/299/380
f 216/300/382 208/291/366 209/292/367
f 209/292/367 217/301/383 216/300/382
f 217/301/384 209/292/368 210/293/369
f 210/293/369 218/302/385 217/301/384
f 218/302/386 210/293/370 211/294/371
f 211/294/371 219/303/387 218/302/386
f 219/303/388 211/294/372 212/295/373
f 212/295/373 220/304/389 219/303/388
f 220/305/390 212/296/374 213/297/375
f 213/297/375 221/306/391 220/305/390
f 221/306/392 213/297/376 206/289/377
f 206/289/377 214/298/393 221/306/392
f 222/307/394 214/298/378 215/299/379
f 215/299/379 223/308/395 222/307/394
f 223/308/396 215/299/380 216/300/381
f 216/300/381 224/309/397 223/308/396
f 224/309/398 216/300/382 217/301/383
f 217/301/383 225/310/399 224/309/398
f 225/310/400 217/301/384 218/302/385
f 218/302/385 226/311/401 225/310/400
f 226/311/402 218/302/386 219/303/387
f 219/303/387 227/312/403 226/311/402
f 227/312/404 219/303/388 220/304/389
f 220/304/389 228/313/405 227/312/404
f 228/314/406 220/305/390 221/306/391
f 221/306/391 229/315/407 228/314/406
f 229/315/408 221/306/392 214/298/393
f 214/298/393 222/307/409 229/315/408
f 230/316/410 222/317/394 223/318/395
f 223/318/395 231/319/411 230/316/410
f 231/319/412 223/318/396 224/320/397
f 224/320/397 232/321/413 231/319/412
f 232/321/414 224/320/398 225/322/399
f 225/322/399 233/323/415 232/321/414
f 233/323/416 225/322/400 226/324/401
f 226/324/401 234/325/417 233/323/416
f 234/325/418 226/324/402 227/326/403
f 227/326/403 235/327/419 234/325/418
f 235/327/420 227/326/404 228/328/405
f 228/328/405 236/329/421 235/327/420
f 236/330/422 228/331/406 229/332/407
f 229/332/407 237/333/423 236/330/422
f 237/333/424 229/332/408 222/317/409
f 222/317/409 230/316/425 237/333/424
f 238/334/426 230/316/410 231/319/411
f 231/319/411 239/335/427 238/334/426
f 239/335/428 231/319/412 232/321/413
f 232/321/413 240/336/429 239/335/428
f 240/336/430 232/321/414 233/323/415
f 233/323/415 241/337/431 240/336/430
f 241/337/432 233/323/416 234/325/417
f 234/325/417 242/338/433 241/337/432
f 242/338/434 234/325/418 235/327/419
f 235/327/419 243/339/435 242/338/434
f 243/339/436 235/327/420 236/329/421
f 236/329/421 244/340/437 243/339/436
f 244/341/438 236/330/422 237/333/423
f 237/333/423 245/342/439 244/341/438
f 245/342/440 237/333/424 230/316/425
f 230/316/425 238/334/441 245/342/440
f 246/343/442 238/334/426 239/335/427
f 239/335/427 247/344/443 246/343/442
f 247/344/444 239/335/428 240/336/429
f 240/336/429 248/345/445 247/344/444
f 248/345/446 240/336/430 241/337/431
f 241/337/431 249/346/447 248/345/446
f 249/346/448 241/337/432 242/338/433
f 242/338/433 250/347/449 249/346/448
f 250/347/450 242/338/434 243/339/435
f 243/339/435 251/348/451 250/347/450
f 251/348/452 243/339/436 244/340/437
f 244/340/437 252/349/453 251/348/452
f 252/350/454 244/341/438 245/342/439
f 245/342/439 253/351/455 252/350/454
f 253/351/456 245/342/440 238/334/441
f 238/334/441 246/343/457 253/351/456
f 254/352/458 246/343/442 247/344/443
f 247/344/443 255/353/459 254/352/458
f 255/353/460 247/344/444 248/345/445
f 248/345/445 256/354/461 255/353/460
f 256/354/462 248/345/446 249/346/447
f 249/346/447 257/355/463 256/354/462
f 257/355/464 249/346/448 250/347/449
f 250/347/449 258/356/465 257/355/464
f 258/356/466 250/347/450 251/348/451
f 251/348/451 259/357/467 258/356/466
f 259/357/468 251/348/452 252/349/453
f 252/349/453 260/358/469 259/357/468
f 260/359/470 252/350/454 253/351/455
f 253/351/455 261/360/470 260/359/470
f 261/360/471 253/351/456 246/343/457
f 246/343/457 254/352/472 261/360/471
f 262/361/473 254/352/458 255/353/459
f 255/353/459 263/362/474 262/361/473
f 263/362/475 255/353/460 256/354/461
f 256/354/461 264/363/476 263/362/475
f 264/363/477 256/354/462 257/355/463
f 257/355/463 265/364/478 264/363/477
f 265/364/479 257/355/464 258/356/465
f 258/356/465 266/365/480 265/364/479
f 266/365/481 258/356/466 259/357/467
f 259/357/467 267/366/482 266/365/481
f 267/366/483 259/357/468 260/358/469
f 260/358/469 268/367/484 267/366/483
f 268/368/485 260/359/470 261/360/470
f 261/360/470 269/369/486 268/368/485
f 269/369/487 261/360/471 254/352/472
f 254/352/472 262/361/488 269/369/487
f 270/370/489 262/361/473 263/362/474
f 263/362/474 271/371/490 270/370/489
f 271/371/491 263/362/475 264/363/476
f 264/363/476 272/372/492 271/371/491
f 272/372/493 264/363/477 265/364/478
f 265/364/478 273/373/494 272/372/493
f 273/373/495 265/364/479 266/365/480
f 266/365/480 274/374/496 273/373/495
f 274/374/497 266/365/481 267/366/482
f 267/366/482 275/375/498 274/374/497
f 275/375/499 267/366/483 268/367/484
f 268/367/484 276/376/500 275/375/499
f 276/377/501 268/368/485 269/369/486
f 269/369/486 277/378/502 276/377/501
f 277/378/503 269/369/487 262/361/488
f 262/361/488 270/370/504 277/378/503
f 278/379/505 270/370/489 271/371/490
f 271/371/490 279/380/506 278/379/505
f 279/380/507 271/371/491 272/372/492
f 272/372/492 280/381/508 279/380/507
f 280/381/509 272/372/493 273/373/494
f 273/373/494 281/382/509 280/381/509
f 281/382/510 273/373/495 274/374/496
f 274/374/496 282/383/511 281/382/510
f 282/383/512 274/374/497 275/375/498
f 275/375/498 283/384/513 282/383/512
f 283/384/514 275/375/499 276/376/500
f 276/376/500 284/385/515 283/384/514
f 284/386/516 276/377/501 277/378/502
f 277/378/502 285/387/517 284/386/516
f 285/387/518 277/378/503 270/370/504
f 270/370/504 278/379/519 285/387/518
f 286/388/520 278/389/505 279/390/506
f 279/390/506 287/391/521 286/388/520
f 287/391/522 279/390/507 280/392/508
f 280/392/508 288/393/523 287/391/522
f 288/393/524 280/392/509 281/394/509
f 281/394/509 289/395/525 288/393/524
f 289/395/526 281/394/510 282/396/511
f 282/396/511 290/397/527 289/395/526
f 290/397/528 282/396/512 283/398/513
f 283/398/513 291/399/529 290/397/528
f 291/399/530 283/398/514 284/400/515
f 284/400/515 292/401/531 291/399/530
f 292/402/532 284/403/516 285/404/517
f 285/404/517 293/405/533 292/402/532
f 293/405/534 285/404/518 278/389/519
f 278/389/519 286/388/535 293/405/534
f 294/406/536 286/388/520 287/391/521
f 287/391/521 295/407/537 294/406/536
f 295/407/538 287/391/522 288/393/523
f 288/393/523 296/408/539 295/407/538
f 296/408/540 288/393/524 289/395/525
f 289/395/525 297/409/541 296/408/540
f 297/409/542 289/395/526 290/397/527
f 290/397/527 298/410/543 297/409/542
f 298/410/544 290/397/528 291/399/529
f 291/399/529 299/411/545 298/410/544
f 299/411/546 291/399/530 292/401/531
f 292/401/531 300/412/547 299/411/546
f 300/413/548 292/402/532 293/405/533
f 293/405/533 301/414/549 300/413/548
f 301/414/550 293/405/534 286/388/535
f 286/388/535 294/406/551 301/414/550
f 302/415/552 294/406/536 295/407/537
f 295/407/537 303/416/553 302/415/552
f 303/416/554 295/407/538 296/408/539
f 296/408/539 304/417/555 303/416/554
f 304/417/556 296/408/540 297/409/541
f 297/409/541 305/418/557 304/417/556
f 305/418/558 297/409/542 298/410/543
f 298/410/543 306/419/558 305/418/558
f 306/419/559 298/410/544 299/411/545
f 299/411/545 307/420/560 306/419/559
f 307/420/561 299/411/546 300/412/547
f 300/412/547 308/421/562 307/420/561
f 308/422/563 300/413/548 301/414/549
f 301/414/549 309/423/564 308/422/563
f 309/423/565 301/414/550 294/406/551
f 294/406/551 302/415/566 309/423/565
f 310/424/567 302/415/552 303/416/553
f 303/416/553 311/425/568 310/424/567
f 311/425/569 303/416/554 304/417/555
f 304/417/555 312/426/569 311/425/569
f 312/426/570 304/417/556 305/418/557
f 305/418/557 313/427/571 312/426/570
f 313/427/572 305/418/558 306/419/558
f 306/419/558 314/428/573 313/427/572
f 314/428/574 306/419/559 307/420/560
f 307/420/560 315/429/575 314/428/574
f 315/429/576 307/420/561 308/421/562
f 308/421/562 316/430/577 315/429/576
f 316/431/578 308/422/563 309/423/564
f 309/423/564 317/432/579 316/431/578
f 317/432/580 309/423/565 302/415/566
f 302/415/566 310/424/581 317/432/580
f 318/433/582 310/424/567 311/425/568
f 311/425/568 319/434/583 318/433/582
f 319/434/584 311/425/569 312/426/569
f 312/426/569 320/435/585 319/434/584
f 320/435/586 312/426/570 313/427/571
f 313/427/571 321/436/587 320/435/586
f 321/436/588 313/427/572 314/428/573
f 314/428/573 322/437/589 321/436/588
f 322/437/590 314/428/574 315/429/575
f 315/429/575 323/438/591 322/437/590
f 323/438/592 315/429/576 316/430/577
f 316/430/577 324/439/593 323/438/592
f 324/440/594 316/431/578 317/432/579
f 317/432/579 325/441/595 324/440/594
f 325/441/596 317/432/580 310/424/581
f 310/424/581 318/433/597 325/441/596
f 326/442/598 318/433/582 319/434/583
f 319/434/583 327/443/599 326/442/598
f 327/443/600 319/434/584 320/435/585
f 320/435/585 328/444/601 327/443/600
f 328/444/602 320/435/586 321/436/587
f 321/436/587 329/445/603 328/444/602
f 329/445/604 321/436/588 322/437/589
f 322/437/589 330/446/605 329/445/604
f 330/446/606 322/437/590 323/438/591
f 323/438/591 331/447/607 330/446/606
f 331/447/608 323/438/592 324/439/593
f 324/439/593 332/448/609 331/447/608
f 332/449/610 324/440/594 325/441/595
f 325/441/595 333/450/611 332/449/610
f 333/450/612 325/441/596 318/433/597
f 318/433/597 326/442/613 333/450/612
f 334/451/614 326/442/598 327/443/599
f 327/443/599 335/452/615 334/451/614
f 335/452/616 327/443/600 328/444/601
f 328/444/601 336/453/617 335/452/616
f 336/453/618 328/444/602 329/445/603
f 329/445/603 337/454/619 336/453/618
f 337/454/620 329/445/604 330/446/605
f 330/446/605 338/455/621 337/454/620
f 338/455/622 330/446/606 331/447/607
f 331/447/607 339/456/623 338/455/622
f 339/456/624 331/447/608 332/448/609
f 332/448/609 340/457/625 339/456/624
f 340/458/626 332/449/610 333/450/611
f 333/450/611 341/459/627 340/458/626
f 341/459/628 333/450/612 326/442/613
f 326/442/613 334/451/629 341/459/628
f 342/460/630 334/451/614 335/452/615
f 335/452/615 343/461/631 342/460/630
f 343/461/632 335/452/616 336/453/617
f 336/453/617 344/462/633 343/461/632
f 344/462/634 336/453/618 337/454/619
f 337/454/619 345/463/635 344/462/634
f 345/463/636 337/454/620 338/455/621
f 338/455/621 346/464/637 345/463/636
f 346/464/638 338/455/622 339/456/623
f 339/456/623 347/465/639 346/464/638
f 347/465/640 339/456/624 340/457/625
f 340/457/625 348/466/641 347/465/640
f 348/467/642 340/458/626 341/459/627
f 341/459/627 349/468/643 348/467/642
f 349/468/644 341/459/628 334/451/629
f 334/451/629 342/460/645 349/468/644
f 350/469/646 342/470/630 343/471/631
f 343/471/631 351/472/647 350/469/646
f 351/472/648 343/471/632 344/473/633
f 344/473/633 352/474/649 351/472/648
f 352/474/650 344/473/634 345/475/635
f 345/475/635 353/476/651 352/474/650
f 353/476/652 345/475/636 346/477/637
f 346/477/637 354/478/653 353/476/652
f 354/478/654 346/477/638 347/479/639
f 347/479/639 355/480/655 354/478/654
f 355/480/656 347/479/640 348/481/641
f 348/481/641 356/482/657 355/480/656
f 356/483/658 348/484/642 349/485/643
f 349/485/643 357/486/659 356/483/658
f 357/486/660 349/485/644 342/470/645
f 342/470/645 350/469/661 357/486/660
f 358/487/662 350/469/646 351/472/647
f 351/472/647 359/488/663 358/487/662
f 359/488/664 351/472/648 352/474/649
f 352/474/649 360/489/665 359/488/664
f 360/489/666 352/474/650 353/476/651
f 353/476/651 361/490/667 360/489/666
f 361/490/668 353/476/652 354/478/653
f 354/478/653 362/491/669 361/490/668
f 362/491/670 354/478/654 355/480/655
f 355/480/655 363/492/671 362/491/670
f 363/492/672 355/480/656 356/482/657
f 356/482/657 364/493/673 363/492/672
f 364/494/674 356/483/658 357/486/659
f 357/486/659 365/495/675 364/494/674
f 365/495/676 357/486/660 350/469/661
f 350/469/661 358/487/677 365/495/676
f 366/496/678 358/487/662 359/488/663
f 359/488/663 367/497/679 366/496/678
f 367/497/680 359/488/664 360/489/665
f 360/489/665 368/498/681 367/497/680
f 368/498/682 360/489/666 361/490/667
f 361/490/667 369/499/683 368/498/682
f 369/499/684 361/490/668 362/491/669
f 362/491/669 370/500/685 369/499/684
f 370/500/686 362/491/670 363/492/671
f 363/492/671 371/501/687 370/500/686
f 371/501/688 363/492/672 364/493/673
f 364/493/673 372/502/689 371/501/688
f 372/503/690 364/494/674 365/495/675
f 365/495/675 373/504/691 372/503/690
f 373/504/692 365/495/676 358/487/677
f 358/487/677 366/496/693 373/504/692
f 374/505/694 366/496/678 367/497/679
f 367/497/679 375/506/695 374/505/694
f 375/506/696 367/497/680 368/498/681
f 368/498/681 376/507/697 375/506/696
f 376/507/698 368/498/682 369/499/683
f 369/499/683 377/508/699 376/507/698
f 377/508/700 369/499/684 370/500/685
f 370/500/685 378/509/701 377/508/700
f 378/509/702 370/500/686 371/501/687
f 371/501/687 379/510/703 378/509/702
f 379/510/704 371/501/688 372/502/689
f 372/502/689 380/511/705 379/510/704
f 380/512/706 372/503/690 373/504/691
f 373/504/691 381/513/707 380/512/706
f 381/513/708 373/504/692 366/496/693
f 366/496/693 374/505/709 381/513/708
f 382/514/710 374/505/694 375/506/695
f 375/506/695 383/515/711 382/514/710
f 383/515/712 375/506/696 376/507/697
f 376/507/697 384/516/713 383/515/712
f 384/516/714 376/507/698 377/508/699
f 377/508/699 385/517/715 384/516/714
f 385/517/716 377/508/700 378/509/701
f 378/509/701 386/518/717 385/517/716
f 386/518/718 378/509/702 379/510/703
f 379/510/703 387/519/719 386/518/718
f 387/519/720 379/510/704 380/511/705
f 380/511/705 388/520/721 387/519/720
f 388/521/722 380/512/706 381/513/707
f 381/513/707 389/522/722 388/521/722
f 389/522/723 381/513/708 374/505/709
f 374/505/709 382/514/724 389/522/723
f 144/523/725 143/524/726 390/525/727
f 146/526/728 144/523/725 390/525/727
f 148/527/729 146/526/728 390/525/727
f 150/528/730 148/527/729 390/525/727
f 152/529/731 150/528/730 390/525/727
f 154/530/732 152/529/731 390/525/727
f 156/531/733 154/530/732 390/525/727
f 143/524/726 156/531/733 390/525/727
f 382/532/734 383/533/735 391/534/736
f 383/533/735 384/535/737 391/534/736
f 384/535/737 385/536/738 391/534/736
f 385/536/738 386/537/739 391/534/736
f 386/537/739 387/538/740 391/534/736
f 387/538/740 388/539/741 391/534/736
f 388/539/741 389/540/742 391/534/736
f 389/540/742 382/532/734 391/534/736

# Mesh
g pCube3
usemtl standardSurface1
f 392/541/67 393/542/67 394/543/67
f 394/543/67 395/544/67 392/541/67
f 396/545/113 392/546/113 395/547/113
f 395/547/113 397/548/113 396/545/113
f 398/549/114 399/550/114 400/551/114
f 400/551/114 401/552/114 398/549/114
f 393/553/68 402/554/68 403/555/68
f 403/555/68 394/556/68 393/553/68
f 395/557/2 394/558/2 403/559/2
f 403/559/2 397/560/2 395/557/2
f 396/561/83 402/562/83 393/563/83
f 393/563/83 392/564/83 396/561/83
f 404/565/743 396/545/744 397/548/744
f 397/548/744 405/566/745 404/565/743
f 405/567/746 397/560/746 403/559/746
f 403/559/746 406/568/746 405/567/746
f 406/569/747 403/555/748 402/554/748
f 402/554/748 407/570/749 406/569/747
f 407/571/750 402/562/751 396/561/751
f 396/561/751 404/572/750 407/571/750
f 399/550/752 404/573/752 405/574/752
f 405/574/752 400/551/752 399/550/752
f 400/551/753 405/574/753 406/575/753
f 406/575/753 401/552/753 400/551/753
f 401/552/754 406/575/754 407/576/754
f 407/576/754 398/549/754 401/552/754
f 398/549/755 407/576/755 404/573/755
f 404/573/755 399/550/755 398/549/755

# Mesh
g polySurface1
usemtl standardSurface1
f 408/577/756 409/578/757 410/579/757
f 410/579/757 411/580/756 408/577/756
f 411/581/758 410/582/759 412/583/760
f 412/583/760 413/584/758 411/581/758
f 414/585/761 408/586/762 411/587/762
f 411/587/762 415/588/761 414/585/761
f 415/588/763 411/587/764 413/589/764
f 413/589/764 416/590/763 415/588/763
f 409/578/67 417/591/67 418/592/67
f 418/592/67 410/579/67 409/578/67
f 419/593/113 414/585/113 415/588/113
f 415/588/113 416/590/113 419/593/113
f 419/593/765 420/594/766 408/586/766
f 408/586/766 414/585/765 419/593/765
f 416/590/767 413/589/768 420/594/768
f 420/594/768 419/593/767 416/590/767
f 421/595/114 422/596/114 423/597/114
f 423/597/114 424/598/114 421/595/114
f 424/598/68 423/597/68 425/599/68
f 425/599/68 426/600/68 424/598/68
f 427/601/769 418/602/770 417/603/771
f 417/603/771 428/604/772 427/601/769
f 429/605/773 430/606/774 418/607/770
f 418/607/770 427/608/769 429/605/773
f 420/609/775 431/610/776 409/611/777
f 409/611/777 408/612/775 420/609/775
f 413/613/778 412/614/779 431/615/779
f 431/615/779 420/616/778 413/613/778
f 428/604/67 432/617/67 433/618/67
f 433/618/67 427/601/67 428/604/67
f 427/608/2 433/619/2 434/620/2
f 434/620/2 429/605/2 427/608/2
f 435/621/113 436/622/113 422/623/113
f 422/623/113 421/624/113 435/621/113
f 426/625/67 425/626/67 436/622/67
f 436/622/67 435/621/67 426/625/67
f 437/627/114 431/615/114 412/614/114
f 412/614/114 430/628/114 437/627/114
f 432/629/68 438/630/68 434/631/68
f 434/631/68 433/632/68 432/629/68
f 428/633/772 417/634/771 437/635/780
f 437/635/780 439/636/781 428/633/772
f 439/637/781 437/638/780 430/639/774
f 430/639/774 429/640/773 439/637/781
f 439/636/83 438/641/83 432/642/83
f 432/642/83 428/633/83 439/636/83
f 438/643/114 439/637/114 429/640/114
f 429/640/114 434/644/114 438/643/114
f 430/606/782 435/645/783 418/607/784
f 435/645/783 421/646/2 418/607/784
f 418/647/784 421/648/2 410/582/2
f 421/648/2 424/649/785 410/582/2
f 410/582/2 424/649/785 412/583/786
f 424/649/785 426/650/787 412/583/786
f 430/651/782 412/583/786 435/652/783
f 426/650/787 435/652/783 412/583/786
f 437/635/788 417/634/789 436/653/790
f 436/653/790 417/634/789 422/654/791
f 417/655/789 409/611/792 422/656/791
f 423/657/793 422/656/791 409/611/792
f 409/611/792 431/610/794 423/657/793
f 423/657/793 431/610/794 425/658/795
f 437/659/788 436/660/790 431/610/794
f 436/660/790 425/658/795 431/610/794

# Mesh
g pCylinder2
usemtl standardSurface1
f 440/661/796 441/662/796 442/663/796
f 442/663/796 443/664/796 440/661/796
f 443/664/797 442/663/797 444/665/797
f 444/665/797 445/666/797 443/664/797
f 445/667/798 444/668/798 446/669/798
f 446/669/798 447/670/798 445/667/798
f 447/670/799 446/669/799 448/671/799
f 448/671/799 449/672/799 447/670/799
f 449/672/800 448/671/800 450/673/800
f 450/673/800 451/674/800 449/672/800
f 451/674/801 450/673/801 441/662/801
f 441/662/801 440/661/801 451/674/801
f 442/675/802 441/676/802 452/677/68
f 444/678/68 442/675/802 452/677/68
f 446/679/803 444/678/68 452/677/68
f 448/680/804 446/679/803 452/677/68
f 450/681/68 448/680/804 452/677/68
f 441/676/802 450/681/68 452/677/68
f 440/682/113 443/683/805 453/684/113
f 443/683/805 445/685/805 453/684/113
f 445/685/805 447/686/113 453/684/113
f 447/686/113 449/687/806 453/684/113
f 449/687/806 451/688/806 453/684/113
f 451/688/806 440/682/113 453/684/113

# Mesh
g pCylinder3
usemtl standardSurface1
f 454/689/796 455/690/796 456/691/796
f 456/691/796 457/692/796 454/689/796
f 457/692/797 456/691/797 458/693/797
f 458/693/797 459/694/797 457/692/797
f 459/695/798 458/696/798 460/697/798
f 460/697/798 461/698/798 459/695/798
f 461/698/799 460/697/799 462/699/799
f 462/699/799 463/700/799 461/698/799
f 463/700/800 462/699/800 464/701/800
f 464/701/800 465/702/800 463/700/800
f 465/702/801 464/701/801 455/690/801
f 455/690/801 454/689/801 465/702/801
f 456/703/802 455/704/802 466/705/68
f 458/706/68 456/703/802 466/705/68
f 460/707/803 458/706/68 466/705/68
f 462/708/804 460/707/803 466/705/68
f 464/709/68 462/708/804 466/705/68
f 455/704/802 464/709/68 466/705/68
f 454/710/113 457/711/805 467/712/113
f 457/711/805 459/713/805 467/712/113
f 459/713/805 461/714/113 467/712/113
f 461/714/113 463/715/806 467/712/113
f 463/715/806 465/716/806 467/712/113
f 465/716/806 454/710/113 467/712/113

# Mesh
g pCylinder4
usemtl standardSurface1
f 468/717/796 469/718/796 470/719/796
f 470/719/796 471/720/796 468/717/796
f 471/720/797 470/719/797 472/721/797
f 472/721/797 473/722/797 471/720/797
f 473/723/798 472/724/798 474/725/798
f 474/725/798 475/726/798 473/723/798
f 475/726/799 474/725/799 476/727/799
f 476/727/799 477/728/799 475/726/799
f 477/728/800 476/727/800 478/729/800
f 478/729/800 479/730/800 477/728/800
f 479/730/801 478/729/801 469/718/801
f 469/718/801 468/717/801 479/730/801
f 470/731/802 469/732/802 480/733/68
f 472/734/68 470/731/802 480/733/68
f 474/735/803 472/734/68 480/733/68
f 476/736/804 474/735/803 480/733/68
f 478/737/68 476/736/804 480/733/68
f 469/732/802 478/737/68 480/733/68
f 468/738/113 471/739/805 481/740/113
f 471/739/805 473/741/805 481/740/113
f 473/741/805 475/742/113 481/740/113
f 475/742/113 477/743/806 481/740/113
f 477/743/806 479/744/806 481/740/113
f 479/744/806 468/738/113 481/740/113

# Mesh
g pCylinder5
usemtl standardSurface1
f 482/745/796 483/746/796 484/747/796
f 484/747/796 485/748/796 482/745/796
f 485/748/797 484/747/797 486/749/797
f 486/749/797 487/750/797 485/748/797
f 487/751/798 486/752/798 488/753/798
f 488/753/798 489/754/798 487/751/798
f 489/754/799 488/753/799 490/755/799
f 490/755/799 491/756/799 489/754/799
f 491/756/800 490/755/800 492/757/800
f 492/757/800 493/758/800 491/756/800
f 493/758/801 492/757/801 483/746/801
f 483/746/801 482/745/801 493/758/801
f 484/759/802 483/760/802 494/761/68
f 486/762/68 484/759/802 494/761/68
f 488/763/803 486/762/68 494/761/68
f 490/764/804 488/763/803 494/761/68
f 492/765/68 490/764/804 494/761/68
f 483/760/802 492/765/68 494/761/68
f 482/766/113 485/767/805 495/768/113
f 485/767/805 487/769/805 495/768/113
f 487/769/805 489/770/113 495/768/113
f 489/770/113 491/771/806 495/768/113
f 491/771/806 493/772/806 495/768/113
f 493/772/806 482/766/113 495/768/113

# Mesh
g pCylinder6
usemtl standardSurface1
f 496/773/796 497/774/796 498/775/796
f 498/775/796 499/776/796 496/773/796
f 499/776/797 498/775/797 500/777/797
f 500/777/797 501/778/797 499/776/797
f 501/779/798 500/780/798 502/781/798
f 502/781/798 503/782/798 501/779/798
f 503/782/799 502/781/799 504/783/799
f 504/783/799 505/784/799 503/782/799
f 505/784/800 504/783/800 506/785/800
f 506/785/800 507/786/800 505/784/800
f 507/786/801 506/785/801 497/774/801
f 497/774/801 496/773/801 507/786/801
f 498/787/802 497/788/802 508/789/68
f 500/790/68 498/787/802 508/789/68
f 502/791/803 500/790/68 508/789/68
f 504/792/804 502/791/803 508/789/68
f 506/793/68 504/792/804 508/789/68
f 497/788/802 506/793/68 508/789/68
f 496/794/113 499/795/805 509/796/113
f 499/795/805 501/797/805 509/796/113
f 501/797/805 503/798/113 509/796/113
f 503/798/113 505/799/806 509/796/113
f 505/799/806 507/800/806 509/796/113
f 507/800/806 496/794/113 509/796/113

# Mesh
g pCylinder7
usemtl standardSurface1
f 510/801/796 511/802/796 512/803/796
f 512/803/796 513/804/796 510/801/796
f 513/804/797 512/803/797 514/805/797
f 514/805/797 515/806/797 513/804/797
f 515/807/798 514/808/798 516/809/798
f 516/809/798 517/810/798 515/807/798
f 517/810/799 516/809/799 518/811/799
f 518/811/799 519/812/799 517/810/799
f 519/812/800 518/811/800 520/813/800
f 520/813/800 521/814/800 519/812/800
f 521/814/801 520/813/801 511/802/801
f 511/802/801 510/801/801 521/814/801
f 512/815/802 511/816/802 522/817/68
f 514/818/68 512/815/802 522/817/68
f 516/819/803 514/818/68 522/817/68
f 518/820/804 516/819/803 522/817/68
f 520/821/68 518/820/804 522/817/68
f 511/816/802 520/821/68 522/817/68
f 510/822/113 513/823/805 523/824/113
f 513/823/805 515/825/805 523/824/113
f 515/825/805 517/826/113 523/824/113
f 517/826/113 519/827/806 523/824/113
f 519/827/806 521/828/806 523/824/113
f 521/828/806 510/822/113 523/824/113
